M48
;Layer_Color=9474304
;FILE_FORMAT=2:5
INCH,LZ
;TYPE=PLATED
T1F00S00C0.01181
T2F00S00C0.02756
T3F00S00C0.03150
T4F00S00C0.03898
T5F00S00C0.03937
T6F00S00C0.06693
;TYPE=NON_PLATED
T7F00S00C0.00984
T8F00S00C0.11811
%
T01
X004089Y0033894
X0039709Y0045311
X0081047
X0082228Y0033894
X0136386Y0040075
X0211189
Y0106413
X0136386
X0082228Y0124839
X0081047Y0136256
X0160039Y0156299
X0195473Y0184252
X0039709Y0136256
X004089Y0124839
T02
X0045221Y0021579
X0086559
Y0093453
Y0112524
Y0184398
X0045221
Y0112524
Y0093453
T03
X0125394Y0166114
Y0174016
Y0181913
Y0189815
T04
X0132252Y0021374
X0149969
Y0046965
X0132252
X0207055
X0224772
Y0021374
X0207055
Y0087713
X0224772
Y0113303
X0207055
X0149969
X0132252
Y0087713
X0149969
T05
X0028095Y0046098
Y0053973
X0069433
Y0046098
X0111189Y0042543
Y0050417
X0185992
Y0042543
Y0058291
Y0066165
Y0108882
Y0116756
Y012463
Y0132504
X0111189
Y012463
Y0116756
Y0108882
Y0066165
Y0058291
X0069433Y0061847
Y0069721
Y0137043
Y0144917
Y0152791
Y0160665
X0028095
Y0152791
Y0144917
Y0137043
Y0069721
Y0061847
T06
X0213504Y0168881
X0193504
X0173504
T07
X0093602Y0043799
Y004498
Y0046161
Y0047343
Y0048524
Y0049705
Y0050886
X0097342
Y0049705
Y0048524
Y0047343
Y0046161
Y004498
Y0043799
X0125689Y0015256
X012687
X0128051
X0129232
X0130413
X0131595
X0132776
X0196752
X0197933
X0199114
X0200295
X0201476
X0202658
X0203839
X017185Y0044882
Y0046063
Y0047244
Y0048425
Y0049606
Y0050787
Y0051968
X0168307
Y0050787
Y0049606
Y0048425
Y0047244
Y0046063
Y0044882
X0242126Y004498
Y0046161
Y0047343
Y0048524
Y0049705
Y0050886
Y0052067
X0242323Y0106791
Y0107972
Y0109153
Y0110335
Y0111516
Y0112697
Y0113878
X0203839Y0143209
X0202658
X0201476
X0200295
X0199114
X0197933
X0196752
X0196752Y0146752
X0197933
X0199114
X0200295
X0201476
X0202658
X0203839
X0203543Y0207972
X0202362
X0201181
X02
X0198819
X0197638
X0196457
X013248
X0131299
X0130118
X0128937
X0127756
X0126575
X0125394
X0125689Y0146752
X012687
X0128051
X0129232
X0130413
X0131595
X0132776
Y0143209
X0131595
X0130413
X0129232
X0128051
X012687
X0125689
X0097441Y0119931
Y011875
Y0117569
Y0116388
Y0115207
Y0114026
Y0112845
X0093996Y0112894
Y0114075
Y0115256
Y0116437
Y0117618
Y0118799
Y011998
X0055709Y0135138
Y0136319
Y01375
Y0138681
Y0139862
Y0141043
Y0142224
X0052165Y0142224
Y0141043
Y0139862
Y0138681
Y01375
Y0136319
Y0135138
Y0071161
Y006998
Y0068799
Y0067618
Y0066437
Y0065256
Y0064075
X0055709
Y0065256
Y0066437
Y0067618
Y0068799
Y006998
Y0071161
X0123228Y0077854
X0124409
X0125591
X0126772
X0127953
X0129134
X0130315
Y0081201
X0129134
X0127953
X0126772
X0125591
X0124409
X0123228
X0168504Y0106693
Y0107874
Y0109055
Y0110236
Y0111417
Y0112598
Y0113779
X0172047
Y0112598
Y0111417
Y0110236
Y0109055
Y0107874
Y0106693
X0194291Y0081201
X0195473
X0196654
X0197835
X0199016
X0200197
X0201378
X0201378Y0077854
X0200197
X0199016
X0197835
X0196653
X0195472
X0194291
X0015453Y007126
Y0070079
Y0068898
Y0067716
Y0066535
Y0065354
Y0064173
Y0135236
Y0136417
Y0137598
Y0138779
Y0139961
Y0141142
Y0142323
T08
X002711Y0026807
X0068449
X0111976Y0023933
X0186779
X0232055Y0060154
Y0126492
X0215476Y0197961
X014311Y0158268
X0157252Y0126492
X0186779Y0090272
X0157252Y0060154
X0111976Y0090272
X0068449Y0088618
Y0117752
Y0179563
X002711
Y0117752
Y0088618
M30
