G04*
G04 #@! TF.GenerationSoftware,Altium Limited,Altium Designer,20.1.8 (145)*
G04*
G04 Layer_Color=8421504*
%FSLAX25Y25*%
%MOIN*%
G70*
G04*
G04 #@! TF.SameCoordinates,97AE0E28-4285-446D-9869-D3FBB0DEE563*
G04*
G04*
G04 #@! TF.FilePolarity,Positive*
G04*
G01*
G75*
%ADD10R,0.03740X0.01968*%
%ADD11R,0.03150X0.03150*%
G04:AMPARAMS|DCode=12|XSize=31.5mil|YSize=31.5mil|CornerRadius=7.87mil|HoleSize=0mil|Usage=FLASHONLY|Rotation=270.000|XOffset=0mil|YOffset=0mil|HoleType=Round|Shape=RoundedRectangle|*
%AMROUNDEDRECTD12*
21,1,0.03150,0.01575,0,0,270.0*
21,1,0.01575,0.03150,0,0,270.0*
1,1,0.01575,-0.00787,-0.00787*
1,1,0.01575,-0.00787,0.00787*
1,1,0.01575,0.00787,0.00787*
1,1,0.01575,0.00787,-0.00787*
%
%ADD12ROUNDEDRECTD12*%
G04:AMPARAMS|DCode=13|XSize=19.68mil|YSize=37.4mil|CornerRadius=4.92mil|HoleSize=0mil|Usage=FLASHONLY|Rotation=270.000|XOffset=0mil|YOffset=0mil|HoleType=Round|Shape=RoundedRectangle|*
%AMROUNDEDRECTD13*
21,1,0.01968,0.02756,0,0,270.0*
21,1,0.00984,0.03740,0,0,270.0*
1,1,0.00984,-0.01378,-0.00492*
1,1,0.00984,-0.01378,0.00492*
1,1,0.00984,0.01378,0.00492*
1,1,0.00984,0.01378,-0.00492*
%
%ADD13ROUNDEDRECTD13*%
G04:AMPARAMS|DCode=16|XSize=31.5mil|YSize=31.5mil|CornerRadius=7.87mil|HoleSize=0mil|Usage=FLASHONLY|Rotation=0.000|XOffset=0mil|YOffset=0mil|HoleType=Round|Shape=RoundedRectangle|*
%AMROUNDEDRECTD16*
21,1,0.03150,0.01575,0,0,0.0*
21,1,0.01575,0.03150,0,0,0.0*
1,1,0.01575,0.00787,-0.00787*
1,1,0.01575,-0.00787,-0.00787*
1,1,0.01575,-0.00787,0.00787*
1,1,0.01575,0.00787,0.00787*
%
%ADD16ROUNDEDRECTD16*%
%ADD17R,0.03150X0.03150*%
D10*
X45221Y58106D02*
D03*
Y52988D02*
D03*
Y71099D02*
D03*
Y65980D02*
D03*
Y45508D02*
D03*
Y40390D02*
D03*
X86559Y58106D02*
D03*
Y52988D02*
D03*
Y71099D02*
D03*
Y65980D02*
D03*
Y45508D02*
D03*
Y40390D02*
D03*
X45221Y149051D02*
D03*
Y143933D02*
D03*
Y162043D02*
D03*
Y156925D02*
D03*
Y136453D02*
D03*
Y131335D02*
D03*
X86559Y149051D02*
D03*
Y143933D02*
D03*
Y162043D02*
D03*
Y156925D02*
D03*
Y136453D02*
D03*
Y131335D02*
D03*
X190617Y186811D02*
D03*
Y191929D02*
D03*
X200591Y186811D02*
D03*
Y191929D02*
D03*
X180643D02*
D03*
Y186811D02*
D03*
X160039Y165551D02*
D03*
Y160433D02*
D03*
X152528Y30929D02*
D03*
Y36047D02*
D03*
X133630Y35941D02*
D03*
Y30823D02*
D03*
X143079Y30823D02*
D03*
Y35941D02*
D03*
X227331Y30929D02*
D03*
Y36047D02*
D03*
X208433Y35941D02*
D03*
Y30823D02*
D03*
X217882Y30823D02*
D03*
Y35941D02*
D03*
X152528Y97268D02*
D03*
Y102386D02*
D03*
X133630Y102279D02*
D03*
Y97161D02*
D03*
X143079Y97161D02*
D03*
Y102279D02*
D03*
X227331Y97268D02*
D03*
Y102386D02*
D03*
X208433Y102279D02*
D03*
Y97161D02*
D03*
X217882Y97161D02*
D03*
Y102279D02*
D03*
D11*
X45221Y78973D02*
D03*
X86559D02*
D03*
X45221Y169917D02*
D03*
X86559D02*
D03*
X170669Y191535D02*
D03*
D12*
X45221Y84878D02*
D03*
X86559D02*
D03*
X45221Y175823D02*
D03*
X86559D02*
D03*
X170669Y185630D02*
D03*
D13*
X45221Y27791D02*
D03*
Y32910D02*
D03*
X86559Y27791D02*
D03*
Y32910D02*
D03*
X45221Y118736D02*
D03*
Y123854D02*
D03*
X86559Y118736D02*
D03*
Y123854D02*
D03*
X159859Y173622D02*
D03*
Y178740D02*
D03*
X158827Y48466D02*
D03*
Y43347D02*
D03*
X233630Y48466D02*
D03*
Y43347D02*
D03*
X158827Y114804D02*
D03*
Y109686D02*
D03*
X233630Y114804D02*
D03*
Y109686D02*
D03*
D16*
X133236Y58579D02*
D03*
X208039D02*
D03*
X133236Y124917D02*
D03*
X208039D02*
D03*
D17*
X139142Y58579D02*
D03*
X213945D02*
D03*
X139142Y124917D02*
D03*
X213945D02*
D03*
M02*
