G04*
G04 #@! TF.GenerationSoftware,Altium Limited,Altium Designer,20.1.8 (145)*
G04*
G04 Layer_Physical_Order=1*
G04 Layer_Color=255*
%FSLAX25Y25*%
%MOIN*%
G70*
G04*
G04 #@! TF.SameCoordinates,97AE0E28-4285-446D-9869-D3FBB0DEE563*
G04*
G04*
G04 #@! TF.FilePolarity,Positive*
G04*
G01*
G75*
%ADD10R,0.03740X0.01968*%
%ADD11R,0.03150X0.03150*%
G04:AMPARAMS|DCode=12|XSize=31.5mil|YSize=31.5mil|CornerRadius=7.87mil|HoleSize=0mil|Usage=FLASHONLY|Rotation=270.000|XOffset=0mil|YOffset=0mil|HoleType=Round|Shape=RoundedRectangle|*
%AMROUNDEDRECTD12*
21,1,0.03150,0.01575,0,0,270.0*
21,1,0.01575,0.03150,0,0,270.0*
1,1,0.01575,-0.00787,-0.00787*
1,1,0.01575,-0.00787,0.00787*
1,1,0.01575,0.00787,0.00787*
1,1,0.01575,0.00787,-0.00787*
%
%ADD12ROUNDEDRECTD12*%
G04:AMPARAMS|DCode=13|XSize=19.68mil|YSize=37.4mil|CornerRadius=4.92mil|HoleSize=0mil|Usage=FLASHONLY|Rotation=270.000|XOffset=0mil|YOffset=0mil|HoleType=Round|Shape=RoundedRectangle|*
%AMROUNDEDRECTD13*
21,1,0.01968,0.02756,0,0,270.0*
21,1,0.00984,0.03740,0,0,270.0*
1,1,0.00984,-0.01378,-0.00492*
1,1,0.00984,-0.01378,0.00492*
1,1,0.00984,0.01378,0.00492*
1,1,0.00984,0.01378,-0.00492*
%
%ADD13ROUNDEDRECTD13*%
%ADD14C,0.01000*%
%ADD15C,0.01181*%
G04:AMPARAMS|DCode=16|XSize=31.5mil|YSize=31.5mil|CornerRadius=7.87mil|HoleSize=0mil|Usage=FLASHONLY|Rotation=0.000|XOffset=0mil|YOffset=0mil|HoleType=Round|Shape=RoundedRectangle|*
%AMROUNDEDRECTD16*
21,1,0.03150,0.01575,0,0,0.0*
21,1,0.01575,0.03150,0,0,0.0*
1,1,0.01575,0.00787,-0.00787*
1,1,0.01575,-0.00787,-0.00787*
1,1,0.01575,-0.00787,0.00787*
1,1,0.01575,0.00787,0.00787*
%
%ADD16ROUNDEDRECTD16*%
%ADD17R,0.03150X0.03150*%
%ADD18C,0.00122*%
%ADD19C,0.04724*%
%ADD20R,0.04724X0.04724*%
%ADD21C,0.05906*%
%ADD22R,0.05906X0.05906*%
%ADD23C,0.11811*%
%ADD24C,0.02362*%
%ADD25R,0.04528X0.04528*%
%ADD26C,0.04528*%
%ADD27R,0.09843X0.09843*%
%ADD28C,0.09843*%
G36*
X208650Y199106D02*
X208538Y197961D01*
X208671Y196607D01*
X209066Y195305D01*
X209707Y194106D01*
X210570Y193054D01*
X211621Y192191D01*
X212821Y191550D01*
X214123Y191155D01*
X215476Y191022D01*
X215574Y191031D01*
X215945Y190696D01*
Y174841D01*
X215445Y174480D01*
X214665Y174716D01*
X213504Y174831D01*
X212343Y174716D01*
X211227Y174378D01*
X210198Y173828D01*
X209297Y173088D01*
X208557Y172187D01*
X208007Y171158D01*
X207668Y170042D01*
X207554Y168881D01*
X207668Y167720D01*
X208007Y166604D01*
X208557Y165575D01*
X209297Y164674D01*
X210198Y163934D01*
X211227Y163384D01*
X212343Y163045D01*
X213504Y162931D01*
X214665Y163045D01*
X215445Y163282D01*
X215945Y162921D01*
Y158268D01*
X163335Y158268D01*
X162909Y158768D01*
Y162417D01*
X157169D01*
Y158449D01*
X156744Y158268D01*
X150049D01*
X150049Y158268D01*
X149916Y159621D01*
X149521Y160923D01*
X148880Y162123D01*
X148017Y163174D01*
X146965Y164037D01*
X145766Y164678D01*
X144464Y165073D01*
X143110Y165207D01*
X141756Y165073D01*
X140455Y164678D01*
X139255Y164037D01*
X138204Y163174D01*
X137341Y162123D01*
X136699Y160923D01*
X136305Y159621D01*
X136171Y158268D01*
X136171Y158268D01*
X119095D01*
Y199606D01*
X208303Y199606D01*
X208650Y199106D01*
D02*
G37*
G36*
X90888Y187870D02*
X90496Y109484D01*
X88943D01*
X88773Y109984D01*
X88957Y110126D01*
X89496Y110828D01*
X89835Y111646D01*
X89950Y112524D01*
X89835Y113401D01*
X89496Y114219D01*
X88957Y114922D01*
X88255Y115461D01*
X88089Y115529D01*
Y116753D01*
X88519Y116839D01*
X89013Y117168D01*
X89343Y117662D01*
X89459Y118244D01*
Y119228D01*
X89343Y119811D01*
X89013Y120304D01*
X88519Y120634D01*
X87937Y120750D01*
X85181D01*
X84599Y120634D01*
X84105Y120304D01*
X83776Y119811D01*
X83660Y119228D01*
Y118244D01*
X83776Y117662D01*
X84105Y117168D01*
X84599Y116839D01*
X85030Y116753D01*
Y115529D01*
X84864Y115461D01*
X84161Y114922D01*
X83622Y114219D01*
X83284Y113401D01*
X83168Y112524D01*
X83284Y111646D01*
X83622Y110828D01*
X84161Y110126D01*
X84346Y109984D01*
X84176Y109484D01*
X59000D01*
Y188224D01*
X83111D01*
X83197Y187760D01*
X83197Y187724D01*
Y181035D01*
X85030D01*
Y178264D01*
X84483Y177899D01*
X84088Y177308D01*
X83949Y176610D01*
Y175036D01*
X84088Y174338D01*
X84483Y173747D01*
X85074Y173352D01*
X85772Y173213D01*
X87347D01*
X88044Y173352D01*
X88635Y173747D01*
X89030Y174338D01*
X89169Y175036D01*
Y176610D01*
X89030Y177308D01*
X88635Y177899D01*
X88089Y178264D01*
Y181035D01*
X89921D01*
Y187724D01*
X89921Y187760D01*
X90007Y188224D01*
X90535D01*
X90888Y187870D01*
D02*
G37*
G36*
X49549D02*
X49158Y109484D01*
X47604D01*
X47434Y109984D01*
X47618Y110126D01*
X48157Y110828D01*
X48496Y111646D01*
X48612Y112524D01*
X48496Y113401D01*
X48157Y114219D01*
X47618Y114922D01*
X46916Y115461D01*
X46750Y115529D01*
Y116753D01*
X47181Y116839D01*
X47674Y117168D01*
X48004Y117662D01*
X48120Y118244D01*
Y119228D01*
X48004Y119811D01*
X47674Y120304D01*
X47181Y120634D01*
X46599Y120750D01*
X43843D01*
X43260Y120634D01*
X42767Y120304D01*
X42437Y119811D01*
X42321Y119228D01*
Y118244D01*
X42437Y117662D01*
X42767Y117168D01*
X43260Y116839D01*
X43691Y116753D01*
Y115529D01*
X43525Y115461D01*
X42823Y114922D01*
X42284Y114219D01*
X41945Y113401D01*
X41829Y112524D01*
X41945Y111646D01*
X42284Y110828D01*
X42823Y110126D01*
X43007Y109984D01*
X42837Y109484D01*
X17661D01*
Y188224D01*
X41773D01*
X41858Y187760D01*
X41858Y187724D01*
Y181035D01*
X43691D01*
Y178264D01*
X43145Y177899D01*
X42749Y177308D01*
X42611Y176610D01*
Y175036D01*
X42749Y174338D01*
X43145Y173747D01*
X43736Y173352D01*
X44433Y173213D01*
X46008D01*
X46705Y173352D01*
X47297Y173747D01*
X47692Y174338D01*
X47830Y175036D01*
Y176610D01*
X47692Y177308D01*
X47297Y177899D01*
X46750Y178264D01*
Y181035D01*
X48583D01*
Y187724D01*
X48583Y187760D01*
X48668Y188224D01*
X49197D01*
X49549Y187870D01*
D02*
G37*
G36*
X90888Y96925D02*
X90496Y18539D01*
X88943D01*
X88773Y19039D01*
X88957Y19181D01*
X89496Y19883D01*
X89835Y20701D01*
X89950Y21579D01*
X89835Y22456D01*
X89496Y23274D01*
X88957Y23977D01*
X88255Y24516D01*
X88089Y24585D01*
Y25808D01*
X88519Y25894D01*
X89013Y26223D01*
X89343Y26717D01*
X89459Y27299D01*
Y28284D01*
X89343Y28866D01*
X89013Y29359D01*
X88519Y29689D01*
X87937Y29805D01*
X85181D01*
X84599Y29689D01*
X84105Y29359D01*
X83776Y28866D01*
X83660Y28284D01*
Y27299D01*
X83776Y26717D01*
X84105Y26223D01*
X84599Y25894D01*
X85030Y25808D01*
Y24585D01*
X84864Y24516D01*
X84161Y23977D01*
X83622Y23274D01*
X83284Y22456D01*
X83168Y21579D01*
X83284Y20701D01*
X83622Y19883D01*
X84161Y19181D01*
X84346Y19039D01*
X84176Y18539D01*
X59000D01*
Y97280D01*
X83111D01*
X83197Y96815D01*
X83197Y96780D01*
Y90091D01*
X85030D01*
Y87319D01*
X84483Y86954D01*
X84088Y86363D01*
X83949Y85665D01*
Y84091D01*
X84088Y83393D01*
X84483Y82802D01*
X85074Y82407D01*
X85772Y82268D01*
X87347D01*
X88044Y82407D01*
X88635Y82802D01*
X89030Y83393D01*
X89169Y84091D01*
Y85665D01*
X89030Y86363D01*
X88635Y86954D01*
X88089Y87319D01*
Y90091D01*
X89921D01*
Y96780D01*
X89921Y96815D01*
X90007Y97280D01*
X90535D01*
X90888Y96925D01*
D02*
G37*
G36*
X49549D02*
X49158Y18539D01*
X47604D01*
X47434Y19039D01*
X47618Y19181D01*
X48157Y19883D01*
X48496Y20701D01*
X48612Y21579D01*
X48496Y22456D01*
X48157Y23274D01*
X47618Y23977D01*
X46916Y24516D01*
X46750Y24585D01*
Y25808D01*
X47181Y25894D01*
X47674Y26223D01*
X48004Y26717D01*
X48120Y27299D01*
Y28284D01*
X48004Y28866D01*
X47674Y29359D01*
X47181Y29689D01*
X46599Y29805D01*
X43843D01*
X43260Y29689D01*
X42767Y29359D01*
X42437Y28866D01*
X42321Y28284D01*
Y27299D01*
X42437Y26717D01*
X42767Y26223D01*
X43260Y25894D01*
X43691Y25808D01*
Y24585D01*
X43525Y24516D01*
X42823Y23977D01*
X42284Y23274D01*
X41945Y22456D01*
X41829Y21579D01*
X41945Y20701D01*
X42284Y19883D01*
X42823Y19181D01*
X43007Y19039D01*
X42837Y18539D01*
X17661D01*
Y97280D01*
X41773D01*
X41858Y96815D01*
X41858Y96780D01*
Y90091D01*
X43691D01*
Y87319D01*
X43145Y86954D01*
X42749Y86363D01*
X42611Y85665D01*
Y84091D01*
X42749Y83393D01*
X43145Y82802D01*
X43736Y82407D01*
X44433Y82268D01*
X46008D01*
X46705Y82407D01*
X47297Y82802D01*
X47692Y83393D01*
X47830Y84091D01*
Y85665D01*
X47692Y86363D01*
X47297Y86954D01*
X46750Y87319D01*
Y90091D01*
X48583D01*
Y96780D01*
X48583Y96815D01*
X48668Y97280D01*
X49197D01*
X49549Y96925D01*
D02*
G37*
%LPC*%
G36*
X193487Y193913D02*
X191117D01*
Y192429D01*
X193487D01*
Y193913D01*
D02*
G37*
G36*
X190117D02*
X187747D01*
Y192429D01*
X190117D01*
Y193913D01*
D02*
G37*
G36*
X203461D02*
X201091D01*
Y192429D01*
X203461D01*
Y193913D01*
D02*
G37*
G36*
X200091D02*
X197721D01*
Y192429D01*
X200091D01*
Y193913D01*
D02*
G37*
G36*
X203461Y191429D02*
X201091D01*
Y189945D01*
X203461D01*
Y191429D01*
D02*
G37*
G36*
X200091D02*
X197721D01*
Y189945D01*
X200091D01*
Y191429D01*
D02*
G37*
G36*
X193487Y191429D02*
X191117D01*
Y189945D01*
X193487D01*
Y191429D01*
D02*
G37*
G36*
X190117D02*
X187747D01*
Y189945D01*
X190117D01*
Y191429D01*
D02*
G37*
G36*
X173244Y194110D02*
X168095D01*
Y188961D01*
X173244D01*
Y190111D01*
X177773D01*
Y189945D01*
X183513D01*
Y193913D01*
X177773D01*
Y193354D01*
X173244D01*
Y194110D01*
D02*
G37*
G36*
X183513Y188795D02*
X181143D01*
Y187311D01*
X183513D01*
Y188795D01*
D02*
G37*
G36*
X180143D02*
X177773D01*
Y187311D01*
X180143D01*
Y188795D01*
D02*
G37*
G36*
X203461D02*
X197721D01*
Y185713D01*
X197221Y185562D01*
X197045Y185825D01*
X196324Y186307D01*
X195473Y186476D01*
X194622Y186307D01*
X194331Y186112D01*
X193487Y186956D01*
Y188795D01*
X187747D01*
Y184827D01*
X191029D01*
X192631Y183225D01*
X193158Y182873D01*
X193778Y182750D01*
X193853D01*
X193900Y182679D01*
X194622Y182197D01*
X195473Y182028D01*
X196324Y182197D01*
X197045Y182679D01*
X197527Y183401D01*
X197696Y184252D01*
X197678Y184344D01*
X198092Y184827D01*
X198969D01*
Y176639D01*
X196385Y174055D01*
X195781Y174378D01*
X194665Y174716D01*
X193504Y174831D01*
X192343Y174716D01*
X191227Y174378D01*
X190623Y174055D01*
X184791Y179887D01*
X184265Y180238D01*
X183645Y180362D01*
X162232D01*
X161820Y180638D01*
X161237Y180754D01*
X158481D01*
X157899Y180638D01*
X157486Y180362D01*
X145473D01*
X144852Y180238D01*
X144326Y179887D01*
X140076Y175637D01*
X128255D01*
X128245Y175662D01*
X127722Y176344D01*
X127040Y176867D01*
X126246Y177196D01*
X125394Y177308D01*
X124542Y177196D01*
X123748Y176867D01*
X123066Y176344D01*
X122543Y175662D01*
X122214Y174868D01*
X122102Y174016D01*
X122214Y173164D01*
X122543Y172370D01*
X123066Y171688D01*
X123748Y171165D01*
X124542Y170836D01*
X125394Y170724D01*
X126246Y170836D01*
X127040Y171165D01*
X127722Y171688D01*
X128245Y172370D01*
X128255Y172394D01*
X140748D01*
X141369Y172518D01*
X141895Y172869D01*
X146144Y177119D01*
X157486D01*
X157899Y176842D01*
X158481Y176727D01*
X161237D01*
X161820Y176842D01*
X162232Y177119D01*
X182973D01*
X188330Y171762D01*
X188007Y171158D01*
X187668Y170042D01*
X187554Y168881D01*
X187668Y167720D01*
X188007Y166604D01*
X188557Y165575D01*
X189297Y164674D01*
X190198Y163934D01*
X191227Y163384D01*
X192343Y163045D01*
X193504Y162931D01*
X194665Y163045D01*
X195781Y163384D01*
X196809Y163934D01*
X197711Y164674D01*
X198451Y165575D01*
X199001Y166604D01*
X199339Y167720D01*
X199454Y168881D01*
X199339Y170042D01*
X199001Y171158D01*
X198678Y171762D01*
X201737Y174821D01*
X202089Y175347D01*
X202212Y175968D01*
Y184827D01*
X203461D01*
Y188795D01*
D02*
G37*
G36*
X183513Y186311D02*
X181143D01*
Y184827D01*
X183513D01*
Y186311D01*
D02*
G37*
G36*
X180143D02*
X177773D01*
Y184827D01*
X180143D01*
Y186311D01*
D02*
G37*
G36*
X128657Y193079D02*
X122130D01*
Y186551D01*
X128657D01*
Y188193D01*
X148687D01*
X152397Y184483D01*
X152923Y184132D01*
X153543Y184008D01*
X168290D01*
X168593Y183554D01*
X169185Y183159D01*
X169882Y183020D01*
X171457D01*
X172154Y183159D01*
X172745Y183554D01*
X173140Y184145D01*
X173279Y184843D01*
Y186417D01*
X173140Y187115D01*
X172745Y187706D01*
X172154Y188101D01*
X171457Y188240D01*
X169882D01*
X169185Y188101D01*
X168593Y187706D01*
X168290Y187252D01*
X154215D01*
X150505Y190962D01*
X149979Y191313D01*
X149358Y191437D01*
X128657D01*
Y193079D01*
D02*
G37*
G36*
X125394Y185205D02*
X124542Y185093D01*
X123748Y184764D01*
X123066Y184241D01*
X122543Y183559D01*
X122214Y182765D01*
X122102Y181913D01*
X122214Y181061D01*
X122543Y180267D01*
X123066Y179586D01*
X123748Y179062D01*
X124542Y178734D01*
X125394Y178621D01*
X126246Y178734D01*
X127040Y179062D01*
X127722Y179586D01*
X128245Y180267D01*
X128574Y181061D01*
X128686Y181913D01*
X128574Y182765D01*
X128245Y183559D01*
X127722Y184241D01*
X127040Y184764D01*
X126246Y185093D01*
X125394Y185205D01*
D02*
G37*
G36*
X125894Y169340D02*
Y166614D01*
X128620D01*
X128574Y166966D01*
X128245Y167760D01*
X127722Y168442D01*
X127040Y168965D01*
X126246Y169294D01*
X125894Y169340D01*
D02*
G37*
G36*
X124894D02*
X124542Y169294D01*
X123748Y168965D01*
X123066Y168442D01*
X122543Y167760D01*
X122214Y166966D01*
X122168Y166614D01*
X124894D01*
Y169340D01*
D02*
G37*
G36*
X162909Y167535D02*
X160539D01*
Y166051D01*
X162909D01*
Y167535D01*
D02*
G37*
G36*
X159539D02*
X157169D01*
Y166051D01*
X159539D01*
Y167535D01*
D02*
G37*
G36*
X162909Y165051D02*
X160539D01*
Y163567D01*
X162909D01*
Y165051D01*
D02*
G37*
G36*
X159539D02*
X157169D01*
Y163567D01*
X159539D01*
Y165051D01*
D02*
G37*
G36*
X161237Y175636D02*
X158481D01*
X157899Y175520D01*
X157406Y175190D01*
X157076Y174696D01*
X156960Y174114D01*
Y173130D01*
X157076Y172548D01*
X157406Y172054D01*
X157899Y171724D01*
X158481Y171609D01*
X161237D01*
X161820Y171724D01*
X162232Y172000D01*
X167583D01*
Y162960D01*
X179425D01*
Y174802D01*
X169860D01*
X169383Y175120D01*
X168763Y175244D01*
X162232D01*
X161820Y175520D01*
X161237Y175636D01*
D02*
G37*
G36*
X128620Y165614D02*
X125894D01*
Y162888D01*
X126246Y162934D01*
X127040Y163263D01*
X127722Y163786D01*
X128245Y164468D01*
X128574Y165262D01*
X128620Y165614D01*
D02*
G37*
G36*
X124894D02*
X122168D01*
X122214Y165262D01*
X122543Y164468D01*
X123066Y163786D01*
X123748Y163263D01*
X124542Y162934D01*
X124894Y162888D01*
Y165614D01*
D02*
G37*
G36*
X68449Y186502D02*
X67095Y186369D01*
X65794Y185974D01*
X64594Y185333D01*
X63542Y184470D01*
X62679Y183418D01*
X62038Y182219D01*
X61643Y180917D01*
X61510Y179563D01*
X61643Y178209D01*
X62038Y176908D01*
X62679Y175708D01*
X63542Y174656D01*
X64594Y173793D01*
X65794Y173152D01*
X67095Y172757D01*
X68449Y172624D01*
X69803Y172757D01*
X71104Y173152D01*
X72304Y173793D01*
X73356Y174656D01*
X74218Y175708D01*
X74860Y176908D01*
X75254Y178209D01*
X75388Y179563D01*
X75254Y180917D01*
X74860Y182219D01*
X74218Y183418D01*
X73356Y184470D01*
X72304Y185333D01*
X71104Y185974D01*
X69803Y186369D01*
X68449Y186502D01*
D02*
G37*
G36*
X89134Y172492D02*
X83984D01*
Y167343D01*
X85030D01*
Y164028D01*
X83689D01*
Y160059D01*
X89429D01*
Y164028D01*
X88089D01*
Y167343D01*
X89134D01*
Y172492D01*
D02*
G37*
G36*
X89429Y158909D02*
X87059D01*
Y157425D01*
X89429D01*
Y158909D01*
D02*
G37*
G36*
X86059D02*
X83689D01*
Y157425D01*
X86059D01*
Y158909D01*
D02*
G37*
G36*
X89429Y156425D02*
X87059D01*
Y154941D01*
X89429D01*
Y156425D01*
D02*
G37*
G36*
X86059D02*
X83689D01*
Y154941D01*
X86059D01*
Y156425D01*
D02*
G37*
G36*
X73386Y164618D02*
X65480D01*
Y156713D01*
X67064D01*
X67399Y156269D01*
X67399Y156213D01*
X66614Y155611D01*
X65980Y154785D01*
X65582Y153823D01*
X65446Y152791D01*
X65582Y151760D01*
X65980Y150798D01*
X66614Y149972D01*
X67440Y149339D01*
X67956Y149125D01*
Y148584D01*
X67440Y148370D01*
X66614Y147737D01*
X65980Y146911D01*
X65582Y145949D01*
X65446Y144917D01*
X65582Y143886D01*
X65980Y142924D01*
X66614Y142098D01*
X67440Y141465D01*
X67956Y141251D01*
Y140710D01*
X67440Y140496D01*
X66614Y139863D01*
X65980Y139037D01*
X65582Y138075D01*
X65512Y137543D01*
X69433D01*
X73354D01*
X73284Y138075D01*
X72886Y139037D01*
X72252Y139863D01*
X71427Y140496D01*
X70911Y140710D01*
Y141251D01*
X71427Y141465D01*
X72252Y142098D01*
X72886Y142924D01*
X73078Y143388D01*
X74748D01*
X75333Y143504D01*
X75830Y143836D01*
X79515Y147522D01*
X83689D01*
Y147067D01*
X89429D01*
Y151035D01*
X83689D01*
Y150581D01*
X78882D01*
X78297Y150464D01*
X77801Y150133D01*
X74115Y146447D01*
X73078D01*
X72886Y146911D01*
X72252Y147737D01*
X71427Y148370D01*
X70911Y148584D01*
Y149125D01*
X71427Y149339D01*
X72252Y149972D01*
X72886Y150798D01*
X73284Y151760D01*
X73420Y152791D01*
X73284Y153823D01*
X72886Y154785D01*
X72252Y155611D01*
X71468Y156213D01*
X71467Y156269D01*
X71802Y156713D01*
X73386D01*
Y164618D01*
D02*
G37*
G36*
X89429Y145917D02*
X87059D01*
Y144433D01*
X89429D01*
Y145917D01*
D02*
G37*
G36*
X86059D02*
X83689D01*
Y144433D01*
X86059D01*
Y145917D01*
D02*
G37*
G36*
X89429Y143433D02*
X87059D01*
Y141949D01*
X89429D01*
Y143433D01*
D02*
G37*
G36*
X86059D02*
X83689D01*
Y141949D01*
X86059D01*
Y143433D01*
D02*
G37*
G36*
X81047Y138480D02*
X80196Y138311D01*
X79475Y137828D01*
X78993Y137107D01*
X78824Y136256D01*
X78993Y135405D01*
X79475Y134684D01*
X80196Y134201D01*
X81047Y134032D01*
X81898Y134201D01*
X82620Y134684D01*
X82780Y134923D01*
X83689D01*
Y134468D01*
X89429D01*
Y138437D01*
X83689D01*
Y137982D01*
X82390D01*
X81898Y138311D01*
X81047Y138480D01*
D02*
G37*
G36*
X73354Y136543D02*
X69933D01*
Y133122D01*
X70465Y133192D01*
X71427Y133591D01*
X72252Y134224D01*
X72886Y135050D01*
X73284Y136012D01*
X73354Y136543D01*
D02*
G37*
G36*
X68933D02*
X65512D01*
X65582Y136012D01*
X65980Y135050D01*
X66614Y134224D01*
X67440Y133591D01*
X68401Y133192D01*
X68933Y133122D01*
Y136543D01*
D02*
G37*
G36*
X89429Y133319D02*
X87059D01*
Y131835D01*
X89429D01*
Y133319D01*
D02*
G37*
G36*
X86059D02*
X83689D01*
Y131835D01*
X86059D01*
Y133319D01*
D02*
G37*
G36*
X89429Y130835D02*
X87059D01*
Y129350D01*
X89429D01*
Y130835D01*
D02*
G37*
G36*
X86059D02*
X83689D01*
Y129350D01*
X86059D01*
Y130835D01*
D02*
G37*
G36*
X82228Y127062D02*
X81377Y126893D01*
X80656Y126411D01*
X80174Y125690D01*
X80005Y124839D01*
X80174Y123988D01*
X80656Y123266D01*
X81377Y122784D01*
X82228Y122615D01*
X82336Y122636D01*
X82627Y122441D01*
X83213Y122325D01*
X84080D01*
X84105Y122286D01*
X84599Y121957D01*
X85181Y121841D01*
X87937D01*
X88519Y121957D01*
X89013Y122286D01*
X89343Y122780D01*
X89459Y123362D01*
Y124346D01*
X89343Y124929D01*
X89013Y125422D01*
X88519Y125752D01*
X87937Y125868D01*
X85181D01*
X84773Y125787D01*
X84599Y125752D01*
X84074Y126003D01*
X83801Y126411D01*
X83079Y126893D01*
X82228Y127062D01*
D02*
G37*
G36*
X68449Y124691D02*
X67095Y124558D01*
X65794Y124163D01*
X64594Y123521D01*
X63542Y122659D01*
X62679Y121607D01*
X62038Y120407D01*
X61643Y119106D01*
X61510Y117752D01*
X61643Y116398D01*
X62038Y115097D01*
X62679Y113897D01*
X63542Y112846D01*
X64594Y111983D01*
X65794Y111341D01*
X67095Y110946D01*
X68449Y110813D01*
X69803Y110946D01*
X71104Y111341D01*
X72304Y111983D01*
X73356Y112846D01*
X74218Y113897D01*
X74860Y115097D01*
X75254Y116398D01*
X75388Y117752D01*
X75254Y119106D01*
X74860Y120407D01*
X74218Y121607D01*
X73356Y122659D01*
X72304Y123521D01*
X71104Y124163D01*
X69803Y124558D01*
X68449Y124691D01*
D02*
G37*
G36*
X27110Y186502D02*
X25757Y186369D01*
X24455Y185974D01*
X23255Y185333D01*
X22204Y184470D01*
X21341Y183418D01*
X20699Y182219D01*
X20305Y180917D01*
X20171Y179563D01*
X20305Y178209D01*
X20699Y176908D01*
X21341Y175708D01*
X22204Y174656D01*
X23255Y173793D01*
X24455Y173152D01*
X25757Y172757D01*
X27110Y172624D01*
X28464Y172757D01*
X29766Y173152D01*
X30965Y173793D01*
X32017Y174656D01*
X32880Y175708D01*
X33521Y176908D01*
X33916Y178209D01*
X34049Y179563D01*
X33916Y180917D01*
X33521Y182219D01*
X32880Y183418D01*
X32017Y184470D01*
X30965Y185333D01*
X29766Y185974D01*
X28464Y186369D01*
X27110Y186502D01*
D02*
G37*
G36*
X47795Y172492D02*
X42646D01*
Y167343D01*
X43691D01*
Y164028D01*
X42350D01*
Y160059D01*
X48091D01*
Y164028D01*
X46750D01*
Y167343D01*
X47795D01*
Y172492D01*
D02*
G37*
G36*
X48091Y158909D02*
X45720D01*
Y157425D01*
X48091D01*
Y158909D01*
D02*
G37*
G36*
X44721D02*
X42350D01*
Y157425D01*
X44721D01*
Y158909D01*
D02*
G37*
G36*
X48091Y156425D02*
X45720D01*
Y154941D01*
X48091D01*
Y156425D01*
D02*
G37*
G36*
X44721D02*
X42350D01*
Y154941D01*
X44721D01*
Y156425D01*
D02*
G37*
G36*
X32047Y164618D02*
X24142D01*
Y156713D01*
X25725D01*
X26061Y156269D01*
X26060Y156213D01*
X25275Y155611D01*
X24642Y154785D01*
X24243Y153823D01*
X24108Y152791D01*
X24243Y151760D01*
X24642Y150798D01*
X25275Y149972D01*
X26101Y149339D01*
X26617Y149125D01*
Y148584D01*
X26101Y148370D01*
X25275Y147737D01*
X24642Y146911D01*
X24243Y145949D01*
X24108Y144917D01*
X24243Y143886D01*
X24642Y142924D01*
X25275Y142098D01*
X26101Y141465D01*
X26617Y141251D01*
Y140710D01*
X26101Y140496D01*
X25275Y139863D01*
X24642Y139037D01*
X24243Y138075D01*
X24173Y137543D01*
X28095D01*
X32016D01*
X31945Y138075D01*
X31547Y139037D01*
X30914Y139863D01*
X30088Y140496D01*
X29572Y140710D01*
Y141251D01*
X30088Y141465D01*
X30914Y142098D01*
X31547Y142924D01*
X31740Y143388D01*
X33410D01*
X33995Y143504D01*
X34491Y143836D01*
X38177Y147522D01*
X42350D01*
Y147067D01*
X48091D01*
Y151035D01*
X42350D01*
Y150581D01*
X37543D01*
X36958Y150464D01*
X36462Y150133D01*
X32776Y146447D01*
X31740D01*
X31547Y146911D01*
X30914Y147737D01*
X30088Y148370D01*
X29572Y148584D01*
Y149125D01*
X30088Y149339D01*
X30914Y149972D01*
X31547Y150798D01*
X31945Y151760D01*
X32081Y152791D01*
X31945Y153823D01*
X31547Y154785D01*
X30914Y155611D01*
X30129Y156213D01*
X30128Y156269D01*
X30464Y156713D01*
X32047D01*
Y164618D01*
D02*
G37*
G36*
X48091Y145917D02*
X45720D01*
Y144433D01*
X48091D01*
Y145917D01*
D02*
G37*
G36*
X44721D02*
X42350D01*
Y144433D01*
X44721D01*
Y145917D01*
D02*
G37*
G36*
X48091Y143433D02*
X45720D01*
Y141949D01*
X48091D01*
Y143433D01*
D02*
G37*
G36*
X44721D02*
X42350D01*
Y141949D01*
X44721D01*
Y143433D01*
D02*
G37*
G36*
X39709Y138480D02*
X38858Y138311D01*
X38136Y137828D01*
X37654Y137107D01*
X37485Y136256D01*
X37654Y135405D01*
X38136Y134684D01*
X38858Y134201D01*
X39709Y134032D01*
X40560Y134201D01*
X41281Y134684D01*
X41442Y134923D01*
X42350D01*
Y134468D01*
X48091D01*
Y138437D01*
X42350D01*
Y137982D01*
X41051D01*
X40560Y138311D01*
X39709Y138480D01*
D02*
G37*
G36*
X32016Y136543D02*
X28594D01*
Y133122D01*
X29126Y133192D01*
X30088Y133591D01*
X30914Y134224D01*
X31547Y135050D01*
X31945Y136012D01*
X32016Y136543D01*
D02*
G37*
G36*
X27595D02*
X24173D01*
X24243Y136012D01*
X24642Y135050D01*
X25275Y134224D01*
X26101Y133591D01*
X27063Y133192D01*
X27595Y133122D01*
Y136543D01*
D02*
G37*
G36*
X48091Y133319D02*
X45720D01*
Y131835D01*
X48091D01*
Y133319D01*
D02*
G37*
G36*
X44721D02*
X42350D01*
Y131835D01*
X44721D01*
Y133319D01*
D02*
G37*
G36*
X48091Y130835D02*
X45720D01*
Y129350D01*
X48091D01*
Y130835D01*
D02*
G37*
G36*
X44721D02*
X42350D01*
Y129350D01*
X44721D01*
Y130835D01*
D02*
G37*
G36*
X40890Y127062D02*
X40039Y126893D01*
X39317Y126411D01*
X38835Y125690D01*
X38666Y124839D01*
X38835Y123988D01*
X39317Y123266D01*
X40039Y122784D01*
X40890Y122615D01*
X40997Y122636D01*
X41289Y122441D01*
X41874Y122325D01*
X42741D01*
X42767Y122286D01*
X43260Y121957D01*
X43843Y121841D01*
X46599D01*
X47181Y121957D01*
X47674Y122286D01*
X48004Y122780D01*
X48120Y123362D01*
Y124346D01*
X48004Y124929D01*
X47674Y125422D01*
X47181Y125752D01*
X46599Y125868D01*
X43843D01*
X43435Y125787D01*
X43260Y125752D01*
X42735Y126003D01*
X42462Y126411D01*
X41741Y126893D01*
X40890Y127062D01*
D02*
G37*
G36*
X27110Y124691D02*
X25757Y124558D01*
X24455Y124163D01*
X23255Y123521D01*
X22204Y122659D01*
X21341Y121607D01*
X20699Y120407D01*
X20305Y119106D01*
X20171Y117752D01*
X20305Y116398D01*
X20699Y115097D01*
X21341Y113897D01*
X22204Y112846D01*
X23255Y111983D01*
X24455Y111341D01*
X25757Y110946D01*
X27110Y110813D01*
X28464Y110946D01*
X29766Y111341D01*
X30965Y111983D01*
X32017Y112846D01*
X32880Y113897D01*
X33521Y115097D01*
X33916Y116398D01*
X34049Y117752D01*
X33916Y119106D01*
X33521Y120407D01*
X32880Y121607D01*
X32017Y122659D01*
X30965Y123521D01*
X29766Y124163D01*
X28464Y124558D01*
X27110Y124691D01*
D02*
G37*
G36*
X68449Y95557D02*
X67095Y95424D01*
X65794Y95029D01*
X64594Y94388D01*
X63542Y93525D01*
X62679Y92473D01*
X62038Y91274D01*
X61643Y89972D01*
X61510Y88618D01*
X61643Y87264D01*
X62038Y85963D01*
X62679Y84763D01*
X63542Y83712D01*
X64594Y82849D01*
X65794Y82207D01*
X67095Y81813D01*
X68449Y81679D01*
X69803Y81813D01*
X71104Y82207D01*
X72304Y82849D01*
X73356Y83712D01*
X74218Y84763D01*
X74860Y85963D01*
X75254Y87264D01*
X75388Y88618D01*
X75254Y89972D01*
X74860Y91274D01*
X74218Y92473D01*
X73356Y93525D01*
X72304Y94388D01*
X71104Y95029D01*
X69803Y95424D01*
X68449Y95557D01*
D02*
G37*
G36*
X89134Y81547D02*
X83984D01*
Y76398D01*
X85030D01*
Y73083D01*
X83689D01*
Y69114D01*
X89429D01*
Y73083D01*
X88089D01*
Y76398D01*
X89134D01*
Y81547D01*
D02*
G37*
G36*
X89429Y67965D02*
X87059D01*
Y66480D01*
X89429D01*
Y67965D01*
D02*
G37*
G36*
X86059D02*
X83689D01*
Y66480D01*
X86059D01*
Y67965D01*
D02*
G37*
G36*
X89429Y65480D02*
X87059D01*
Y63996D01*
X89429D01*
Y65480D01*
D02*
G37*
G36*
X86059D02*
X83689D01*
Y63996D01*
X86059D01*
Y65480D01*
D02*
G37*
G36*
X73386Y73673D02*
X65480D01*
Y65768D01*
X67064D01*
X67399Y65324D01*
X67399Y65268D01*
X66614Y64666D01*
X65980Y63840D01*
X65582Y62878D01*
X65446Y61847D01*
X65582Y60815D01*
X65980Y59853D01*
X66614Y59027D01*
X67440Y58394D01*
X67956Y58180D01*
Y57639D01*
X67440Y57425D01*
X66614Y56792D01*
X65980Y55966D01*
X65582Y55004D01*
X65446Y53973D01*
X65582Y52941D01*
X65980Y51979D01*
X66614Y51153D01*
X67440Y50520D01*
X67956Y50306D01*
Y49765D01*
X67440Y49551D01*
X66614Y48918D01*
X65980Y48092D01*
X65582Y47130D01*
X65512Y46598D01*
X69433D01*
X73354D01*
X73284Y47130D01*
X72886Y48092D01*
X72252Y48918D01*
X71427Y49551D01*
X70911Y49765D01*
Y50306D01*
X71427Y50520D01*
X72252Y51153D01*
X72886Y51979D01*
X73078Y52443D01*
X74748D01*
X75333Y52560D01*
X75830Y52891D01*
X79515Y56577D01*
X83689D01*
Y56122D01*
X89429D01*
Y60091D01*
X83689D01*
Y59636D01*
X78882D01*
X78297Y59519D01*
X77801Y59188D01*
X74115Y55502D01*
X73078D01*
X72886Y55966D01*
X72252Y56792D01*
X71427Y57425D01*
X70911Y57639D01*
Y58180D01*
X71427Y58394D01*
X72252Y59027D01*
X72886Y59853D01*
X73284Y60815D01*
X73420Y61847D01*
X73284Y62878D01*
X72886Y63840D01*
X72252Y64666D01*
X71468Y65268D01*
X71467Y65324D01*
X71802Y65768D01*
X73386D01*
Y73673D01*
D02*
G37*
G36*
X89429Y54972D02*
X87059D01*
Y53488D01*
X89429D01*
Y54972D01*
D02*
G37*
G36*
X86059D02*
X83689D01*
Y53488D01*
X86059D01*
Y54972D01*
D02*
G37*
G36*
X89429Y52488D02*
X87059D01*
Y51004D01*
X89429D01*
Y52488D01*
D02*
G37*
G36*
X86059D02*
X83689D01*
Y51004D01*
X86059D01*
Y52488D01*
D02*
G37*
G36*
X81047Y47535D02*
X80196Y47366D01*
X79475Y46883D01*
X78993Y46162D01*
X78824Y45311D01*
X78993Y44460D01*
X79475Y43739D01*
X80196Y43257D01*
X81047Y43087D01*
X81898Y43257D01*
X82620Y43739D01*
X82780Y43979D01*
X83689D01*
Y43524D01*
X89429D01*
Y47492D01*
X83689D01*
Y47037D01*
X82390D01*
X81898Y47366D01*
X81047Y47535D01*
D02*
G37*
G36*
X73354Y45598D02*
X69933D01*
Y42177D01*
X70465Y42247D01*
X71427Y42646D01*
X72252Y43279D01*
X72886Y44105D01*
X73284Y45067D01*
X73354Y45598D01*
D02*
G37*
G36*
X68933D02*
X65512D01*
X65582Y45067D01*
X65980Y44105D01*
X66614Y43279D01*
X67440Y42646D01*
X68401Y42247D01*
X68933Y42177D01*
Y45598D01*
D02*
G37*
G36*
X89429Y42374D02*
X87059D01*
Y40890D01*
X89429D01*
Y42374D01*
D02*
G37*
G36*
X86059D02*
X83689D01*
Y40890D01*
X86059D01*
Y42374D01*
D02*
G37*
G36*
X89429Y39890D02*
X87059D01*
Y38405D01*
X89429D01*
Y39890D01*
D02*
G37*
G36*
X86059D02*
X83689D01*
Y38405D01*
X86059D01*
Y39890D01*
D02*
G37*
G36*
X82228Y36118D02*
X81377Y35948D01*
X80656Y35466D01*
X80174Y34745D01*
X80005Y33894D01*
X80174Y33043D01*
X80656Y32321D01*
X81377Y31839D01*
X82228Y31670D01*
X82336Y31691D01*
X82627Y31497D01*
X83213Y31380D01*
X84080D01*
X84105Y31342D01*
X84599Y31012D01*
X85181Y30896D01*
X87937D01*
X88519Y31012D01*
X89013Y31342D01*
X89343Y31835D01*
X89459Y32417D01*
Y33402D01*
X89343Y33984D01*
X89013Y34477D01*
X88519Y34807D01*
X87937Y34923D01*
X85181D01*
X84773Y34842D01*
X84599Y34807D01*
X84074Y35058D01*
X83801Y35466D01*
X83079Y35948D01*
X82228Y36118D01*
D02*
G37*
G36*
X68449Y33746D02*
X67095Y33613D01*
X65794Y33218D01*
X64594Y32577D01*
X63542Y31714D01*
X62679Y30662D01*
X62038Y29463D01*
X61643Y28161D01*
X61510Y26807D01*
X61643Y25453D01*
X62038Y24152D01*
X62679Y22952D01*
X63542Y21901D01*
X64594Y21038D01*
X65794Y20396D01*
X67095Y20001D01*
X68449Y19868D01*
X69803Y20001D01*
X71104Y20396D01*
X72304Y21038D01*
X73356Y21901D01*
X74218Y22952D01*
X74860Y24152D01*
X75254Y25453D01*
X75388Y26807D01*
X75254Y28161D01*
X74860Y29463D01*
X74218Y30662D01*
X73356Y31714D01*
X72304Y32577D01*
X71104Y33218D01*
X69803Y33613D01*
X68449Y33746D01*
D02*
G37*
G36*
X27110Y95557D02*
X25757Y95424D01*
X24455Y95029D01*
X23255Y94388D01*
X22204Y93525D01*
X21341Y92473D01*
X20699Y91274D01*
X20305Y89972D01*
X20171Y88618D01*
X20305Y87264D01*
X20699Y85963D01*
X21341Y84763D01*
X22204Y83712D01*
X23255Y82849D01*
X24455Y82207D01*
X25757Y81813D01*
X27110Y81679D01*
X28464Y81813D01*
X29766Y82207D01*
X30965Y82849D01*
X32017Y83712D01*
X32880Y84763D01*
X33521Y85963D01*
X33916Y87264D01*
X34049Y88618D01*
X33916Y89972D01*
X33521Y91274D01*
X32880Y92473D01*
X32017Y93525D01*
X30965Y94388D01*
X29766Y95029D01*
X28464Y95424D01*
X27110Y95557D01*
D02*
G37*
G36*
X47795Y81547D02*
X42646D01*
Y76398D01*
X43691D01*
Y73083D01*
X42350D01*
Y69114D01*
X48091D01*
Y73083D01*
X46750D01*
Y76398D01*
X47795D01*
Y81547D01*
D02*
G37*
G36*
X48091Y67965D02*
X45720D01*
Y66480D01*
X48091D01*
Y67965D01*
D02*
G37*
G36*
X44721D02*
X42350D01*
Y66480D01*
X44721D01*
Y67965D01*
D02*
G37*
G36*
X48091Y65480D02*
X45720D01*
Y63996D01*
X48091D01*
Y65480D01*
D02*
G37*
G36*
X44721D02*
X42350D01*
Y63996D01*
X44721D01*
Y65480D01*
D02*
G37*
G36*
X32047Y73673D02*
X24142D01*
Y65768D01*
X25725D01*
X26061Y65324D01*
X26060Y65268D01*
X25275Y64666D01*
X24642Y63840D01*
X24243Y62878D01*
X24108Y61847D01*
X24243Y60815D01*
X24642Y59853D01*
X25275Y59027D01*
X26101Y58394D01*
X26617Y58180D01*
Y57639D01*
X26101Y57425D01*
X25275Y56792D01*
X24642Y55966D01*
X24243Y55004D01*
X24108Y53973D01*
X24243Y52941D01*
X24642Y51979D01*
X25275Y51153D01*
X26101Y50520D01*
X26617Y50306D01*
Y49765D01*
X26101Y49551D01*
X25275Y48918D01*
X24642Y48092D01*
X24243Y47130D01*
X24173Y46598D01*
X28095D01*
X32016D01*
X31945Y47130D01*
X31547Y48092D01*
X30914Y48918D01*
X30088Y49551D01*
X29572Y49765D01*
Y50306D01*
X30088Y50520D01*
X30914Y51153D01*
X31547Y51979D01*
X31740Y52443D01*
X33410D01*
X33995Y52560D01*
X34491Y52891D01*
X38177Y56577D01*
X42350D01*
Y56122D01*
X48091D01*
Y60091D01*
X42350D01*
Y59636D01*
X37543D01*
X36958Y59519D01*
X36462Y59188D01*
X32776Y55502D01*
X31740D01*
X31547Y55966D01*
X30914Y56792D01*
X30088Y57425D01*
X29572Y57639D01*
Y58180D01*
X30088Y58394D01*
X30914Y59027D01*
X31547Y59853D01*
X31945Y60815D01*
X32081Y61847D01*
X31945Y62878D01*
X31547Y63840D01*
X30914Y64666D01*
X30129Y65268D01*
X30128Y65324D01*
X30464Y65768D01*
X32047D01*
Y73673D01*
D02*
G37*
G36*
X48091Y54972D02*
X45720D01*
Y53488D01*
X48091D01*
Y54972D01*
D02*
G37*
G36*
X44721D02*
X42350D01*
Y53488D01*
X44721D01*
Y54972D01*
D02*
G37*
G36*
X48091Y52488D02*
X45720D01*
Y51004D01*
X48091D01*
Y52488D01*
D02*
G37*
G36*
X44721D02*
X42350D01*
Y51004D01*
X44721D01*
Y52488D01*
D02*
G37*
G36*
X39709Y47535D02*
X38858Y47366D01*
X38136Y46883D01*
X37654Y46162D01*
X37485Y45311D01*
X37654Y44460D01*
X38136Y43739D01*
X38858Y43257D01*
X39709Y43087D01*
X40560Y43257D01*
X41281Y43739D01*
X41442Y43979D01*
X42350D01*
Y43524D01*
X48091D01*
Y47492D01*
X42350D01*
Y47037D01*
X41051D01*
X40560Y47366D01*
X39709Y47535D01*
D02*
G37*
G36*
X32016Y45598D02*
X28594D01*
Y42177D01*
X29126Y42247D01*
X30088Y42646D01*
X30914Y43279D01*
X31547Y44105D01*
X31945Y45067D01*
X32016Y45598D01*
D02*
G37*
G36*
X27595D02*
X24173D01*
X24243Y45067D01*
X24642Y44105D01*
X25275Y43279D01*
X26101Y42646D01*
X27063Y42247D01*
X27595Y42177D01*
Y45598D01*
D02*
G37*
G36*
X48091Y42374D02*
X45720D01*
Y40890D01*
X48091D01*
Y42374D01*
D02*
G37*
G36*
X44721D02*
X42350D01*
Y40890D01*
X44721D01*
Y42374D01*
D02*
G37*
G36*
X48091Y39890D02*
X45720D01*
Y38405D01*
X48091D01*
Y39890D01*
D02*
G37*
G36*
X44721D02*
X42350D01*
Y38405D01*
X44721D01*
Y39890D01*
D02*
G37*
G36*
X40890Y36118D02*
X40039Y35948D01*
X39317Y35466D01*
X38835Y34745D01*
X38666Y33894D01*
X38835Y33043D01*
X39317Y32321D01*
X40039Y31839D01*
X40890Y31670D01*
X40997Y31691D01*
X41289Y31497D01*
X41874Y31380D01*
X42741D01*
X42767Y31342D01*
X43260Y31012D01*
X43843Y30896D01*
X46599D01*
X47181Y31012D01*
X47674Y31342D01*
X48004Y31835D01*
X48120Y32417D01*
Y33402D01*
X48004Y33984D01*
X47674Y34477D01*
X47181Y34807D01*
X46599Y34923D01*
X43843D01*
X43435Y34842D01*
X43260Y34807D01*
X42735Y35058D01*
X42462Y35466D01*
X41741Y35948D01*
X40890Y36118D01*
D02*
G37*
G36*
X27110Y33746D02*
X25757Y33613D01*
X24455Y33218D01*
X23255Y32577D01*
X22204Y31714D01*
X21341Y30662D01*
X20699Y29463D01*
X20305Y28161D01*
X20171Y26807D01*
X20305Y25453D01*
X20699Y24152D01*
X21341Y22952D01*
X22204Y21901D01*
X23255Y21038D01*
X24455Y20396D01*
X25757Y20001D01*
X27110Y19868D01*
X28464Y20001D01*
X29766Y20396D01*
X30965Y21038D01*
X32017Y21901D01*
X32880Y22952D01*
X33521Y24152D01*
X33916Y25453D01*
X34049Y26807D01*
X33916Y28161D01*
X33521Y29463D01*
X32880Y30662D01*
X32017Y31714D01*
X30965Y32577D01*
X29766Y33218D01*
X28464Y33613D01*
X27110Y33746D01*
D02*
G37*
%LPD*%
D10*
X45221Y58106D02*
D03*
Y52988D02*
D03*
Y71099D02*
D03*
Y65980D02*
D03*
Y45508D02*
D03*
Y40390D02*
D03*
X86559Y58106D02*
D03*
Y52988D02*
D03*
Y71099D02*
D03*
Y65980D02*
D03*
Y45508D02*
D03*
Y40390D02*
D03*
X45221Y149051D02*
D03*
Y143933D02*
D03*
Y162043D02*
D03*
Y156925D02*
D03*
Y136453D02*
D03*
Y131335D02*
D03*
X86559Y149051D02*
D03*
Y143933D02*
D03*
Y162043D02*
D03*
Y156925D02*
D03*
Y136453D02*
D03*
Y131335D02*
D03*
X190617Y186811D02*
D03*
Y191929D02*
D03*
X200591Y186811D02*
D03*
Y191929D02*
D03*
X180643D02*
D03*
Y186811D02*
D03*
X160039Y165551D02*
D03*
Y160433D02*
D03*
X152528Y30929D02*
D03*
Y36047D02*
D03*
X133630Y35941D02*
D03*
Y30823D02*
D03*
X143079Y30823D02*
D03*
Y35941D02*
D03*
X227331Y30929D02*
D03*
Y36047D02*
D03*
X208433Y35941D02*
D03*
Y30823D02*
D03*
X217882Y30823D02*
D03*
Y35941D02*
D03*
X152528Y97268D02*
D03*
Y102386D02*
D03*
X133630Y102279D02*
D03*
Y97161D02*
D03*
X143079Y97161D02*
D03*
Y102279D02*
D03*
X227331Y97268D02*
D03*
Y102386D02*
D03*
X208433Y102279D02*
D03*
Y97161D02*
D03*
X217882Y97161D02*
D03*
Y102279D02*
D03*
D11*
X45221Y78973D02*
D03*
X86559D02*
D03*
X45221Y169917D02*
D03*
X86559D02*
D03*
X170669Y191535D02*
D03*
D12*
X45221Y84878D02*
D03*
X86559D02*
D03*
X45221Y175823D02*
D03*
X86559D02*
D03*
X170669Y185630D02*
D03*
D13*
X45221Y27791D02*
D03*
Y32910D02*
D03*
X86559Y27791D02*
D03*
Y32910D02*
D03*
X45221Y118736D02*
D03*
Y123854D02*
D03*
X86559Y118736D02*
D03*
Y123854D02*
D03*
X159859Y173622D02*
D03*
Y178740D02*
D03*
X158827Y48466D02*
D03*
Y43347D02*
D03*
X233630Y48466D02*
D03*
Y43347D02*
D03*
X158827Y114804D02*
D03*
Y109686D02*
D03*
X233630Y114804D02*
D03*
Y109686D02*
D03*
D14*
X37543Y58106D02*
X45221D01*
X33410Y53973D02*
X37543Y58106D01*
X28095Y53973D02*
X33410D01*
X39906Y45508D02*
X45221D01*
X41874Y32910D02*
X45221D01*
X40890Y33894D02*
X41874Y32910D01*
X45221Y71099D02*
Y78973D01*
Y21579D02*
Y27791D01*
Y84878D02*
Y93453D01*
X78882Y58106D02*
X86559D01*
X74748Y53973D02*
X78882Y58106D01*
X69433Y53973D02*
X74748D01*
X81244Y45508D02*
X86559D01*
X83213Y32910D02*
X86559D01*
X82228Y33894D02*
X83213Y32910D01*
X86559Y71099D02*
Y78973D01*
Y21579D02*
Y27791D01*
Y84878D02*
Y93453D01*
X37543Y149051D02*
X45221D01*
X33410Y144917D02*
X37543Y149051D01*
X28095Y144917D02*
X33410D01*
X39906Y136453D02*
X45221D01*
X41874Y123854D02*
X45221D01*
X40890Y124839D02*
X41874Y123854D01*
X45221Y162043D02*
Y169917D01*
Y112524D02*
Y118736D01*
Y175823D02*
Y184398D01*
X78882Y149051D02*
X86559D01*
X74748Y144917D02*
X78882Y149051D01*
X69433Y144917D02*
X74748D01*
X81244Y136453D02*
X86559D01*
X83213Y123854D02*
X86559D01*
X82228Y124839D02*
X83213Y123854D01*
X86559Y162043D02*
Y169917D01*
Y112524D02*
Y118736D01*
Y175823D02*
Y184398D01*
X111189Y66165D02*
X117882D01*
X125469Y58579D01*
X132252Y21374D02*
X136276D01*
X141697Y26795D02*
X156858D01*
X136276Y21374D02*
X141697Y26795D01*
X156858D02*
X158827Y28764D01*
Y38606D01*
Y43347D01*
X156268Y36047D02*
X158827Y38606D01*
X152528Y36047D02*
X156268D01*
X185992Y66165D02*
X192685D01*
X200272Y58579D01*
X207055Y21374D02*
X211079D01*
X216501Y26795D02*
X231661D01*
X211079Y21374D02*
X216501Y26795D01*
X231661D02*
X233630Y28764D01*
Y38606D01*
Y43347D01*
X231071Y36047D02*
X233630Y38606D01*
X227331Y36047D02*
X231071D01*
X111189Y132504D02*
X117882D01*
X125469Y124917D01*
X132252Y87713D02*
X136276D01*
X141697Y93134D02*
X156858D01*
X136276Y87713D02*
X141697Y93134D01*
X156858D02*
X158827Y95102D01*
Y104945D01*
Y109686D01*
X156268Y102386D02*
X158827Y104945D01*
X152528Y102386D02*
X156268D01*
X185992Y132504D02*
X192685D01*
X200272Y124917D01*
X207055Y87713D02*
X211079D01*
X216501Y93134D02*
X231661D01*
X211079Y87713D02*
X216501Y93134D01*
X231661D02*
X233630Y95102D01*
Y104945D01*
Y109686D01*
X231071Y102386D02*
X233630Y104945D01*
X227331Y102386D02*
X231071D01*
D15*
X153543Y185630D02*
X170669D01*
X149358Y189815D02*
X153543Y185630D01*
X125394Y189815D02*
X149358D01*
X145473Y178740D02*
X159859D01*
X125394Y174016D02*
X140748D01*
X145473Y178740D01*
X190617Y186811D02*
X191503D01*
X191896Y186417D01*
Y186253D02*
Y186417D01*
Y186253D02*
X193778Y184371D01*
X195353D01*
X195473Y184252D01*
X160039Y156299D02*
Y160433D01*
X159859Y173622D02*
X168763D01*
X173504Y168881D01*
X200591Y175968D02*
Y186811D01*
X193504Y168881D02*
X200591Y175968D01*
X159859Y178740D02*
X183645D01*
X193504Y168881D01*
X179921Y191732D02*
X180118Y191929D01*
X170866Y191732D02*
X179921D01*
X170669Y191535D02*
X170866Y191732D01*
X125469Y58579D02*
X133236D01*
X111189Y42543D02*
X111312Y42420D01*
X115913D01*
X133630Y30823D02*
X143079D01*
X133630Y30823D02*
X133630Y30823D01*
X152921D02*
X152921Y30823D01*
X143079Y30823D02*
X152921D01*
X139142Y52673D02*
X143079Y48736D01*
Y35941D02*
Y48736D01*
X139142Y52673D02*
Y58579D01*
X127511Y30823D02*
X133630D01*
X115913Y42420D02*
X127511Y30823D01*
X149969Y46965D02*
X151247D01*
X152642Y48359D01*
X158827D01*
X147016Y50693D02*
Y60154D01*
Y50693D02*
X149969Y47740D01*
Y46965D02*
Y47740D01*
X143866Y63303D02*
X147016Y60154D01*
X135205Y63303D02*
X143866D01*
X133236Y61335D02*
X135205Y63303D01*
X133236Y58579D02*
Y61335D01*
X133630Y35941D02*
Y38894D01*
X134811Y40075D01*
X136386D01*
X200272Y58579D02*
X208039D01*
X185992Y42543D02*
X186115Y42420D01*
X190717D01*
X208433Y30823D02*
X217882D01*
X208433Y30823D02*
X208433Y30823D01*
X227724D02*
X227724Y30823D01*
X217882Y30823D02*
X227724D01*
X213945Y52673D02*
X217882Y48736D01*
Y35941D02*
Y48736D01*
X213945Y52673D02*
Y58579D01*
X202314Y30823D02*
X208433D01*
X190717Y42420D02*
X202314Y30823D01*
X224772Y46965D02*
X226050D01*
X227445Y48359D01*
X233630D01*
X221819Y50693D02*
Y60154D01*
Y50693D02*
X224772Y47740D01*
Y46965D02*
Y47740D01*
X218669Y63303D02*
X221819Y60154D01*
X210008Y63303D02*
X218669D01*
X208039Y61335D02*
X210008Y63303D01*
X208039Y58579D02*
Y61335D01*
X208433Y35941D02*
Y38894D01*
X209614Y40075D01*
X211189D01*
X125469Y124917D02*
X133236D01*
X111189Y108882D02*
X111312Y108759D01*
X115913D01*
X133630Y97161D02*
X143079D01*
X133630Y97161D02*
X133630Y97161D01*
X152921D02*
X152921Y97161D01*
X143079Y97161D02*
X152921D01*
X139142Y119012D02*
X143079Y115075D01*
Y102279D02*
Y115075D01*
X139142Y119012D02*
Y124917D01*
X127511Y97161D02*
X133630D01*
X115913Y108759D02*
X127511Y97161D01*
X149969Y113303D02*
X151247D01*
X152642Y114698D01*
X158827D01*
X147016Y117032D02*
Y126492D01*
Y117032D02*
X149969Y114079D01*
Y113303D02*
Y114079D01*
X143866Y129642D02*
X147016Y126492D01*
X135205Y129642D02*
X143866D01*
X133236Y127673D02*
X135205Y129642D01*
X133236Y124917D02*
Y127673D01*
X133630Y102279D02*
Y105232D01*
X134811Y106413D01*
X136386D01*
X200272Y124917D02*
X208039D01*
X185992Y108882D02*
X186115Y108759D01*
X190717D01*
X208433Y97161D02*
X217882D01*
X208433Y97161D02*
X208433Y97161D01*
X227724D02*
X227724Y97161D01*
X217882Y97161D02*
X227724D01*
X213945Y119012D02*
X217882Y115075D01*
Y102279D02*
Y115075D01*
X213945Y119012D02*
Y124917D01*
X202314Y97161D02*
X208433D01*
X190717Y108759D02*
X202314Y97161D01*
X224772Y113303D02*
X226050D01*
X227445Y114698D01*
X233630D01*
X221819Y117032D02*
Y126492D01*
Y117032D02*
X224772Y114079D01*
Y113303D02*
Y114079D01*
X218669Y129642D02*
X221819Y126492D01*
X210008Y129642D02*
X218669D01*
X208039Y127673D02*
X210008Y129642D01*
X208039Y124917D02*
Y127673D01*
X208433Y102279D02*
Y105232D01*
X209614Y106413D01*
X211189D01*
D16*
X133236Y58579D02*
D03*
X208039D02*
D03*
X133236Y124917D02*
D03*
X208039D02*
D03*
D17*
X139142Y58579D02*
D03*
X213945D02*
D03*
X139142Y124917D02*
D03*
X213945D02*
D03*
D18*
X93996Y119980D02*
D03*
Y118799D02*
D03*
Y117618D02*
D03*
Y116437D02*
D03*
Y115256D02*
D03*
Y114075D02*
D03*
Y112894D02*
D03*
X15453Y71260D02*
D03*
Y70079D02*
D03*
Y68898D02*
D03*
Y67716D02*
D03*
Y66535D02*
D03*
Y65354D02*
D03*
Y64173D02*
D03*
Y142323D02*
D03*
Y141142D02*
D03*
Y139961D02*
D03*
Y138779D02*
D03*
Y137598D02*
D03*
Y136417D02*
D03*
Y135236D02*
D03*
X52165Y135138D02*
D03*
Y136319D02*
D03*
Y137500D02*
D03*
Y138681D02*
D03*
Y139862D02*
D03*
Y141043D02*
D03*
Y142224D02*
D03*
Y71161D02*
D03*
Y69980D02*
D03*
Y68799D02*
D03*
Y67618D02*
D03*
Y66437D02*
D03*
Y65256D02*
D03*
Y64075D02*
D03*
X55709Y71161D02*
D03*
Y69980D02*
D03*
Y68799D02*
D03*
Y67618D02*
D03*
Y66437D02*
D03*
Y65256D02*
D03*
Y64075D02*
D03*
Y142224D02*
D03*
Y141043D02*
D03*
Y139862D02*
D03*
Y138681D02*
D03*
Y137500D02*
D03*
Y136319D02*
D03*
Y135138D02*
D03*
X132480Y207972D02*
D03*
X131299D02*
D03*
X130118D02*
D03*
X128937D02*
D03*
X127756D02*
D03*
X126575D02*
D03*
X125394D02*
D03*
X203543D02*
D03*
X202362D02*
D03*
X201181D02*
D03*
X200000D02*
D03*
X198819D02*
D03*
X197638D02*
D03*
X196457D02*
D03*
X242126Y44980D02*
D03*
Y46161D02*
D03*
Y47343D02*
D03*
Y48524D02*
D03*
Y49705D02*
D03*
Y50886D02*
D03*
Y52067D02*
D03*
X242323Y113878D02*
D03*
Y112697D02*
D03*
Y111516D02*
D03*
Y110335D02*
D03*
Y109153D02*
D03*
Y107972D02*
D03*
Y106791D02*
D03*
X196752Y143209D02*
D03*
X197933D02*
D03*
X199114D02*
D03*
X200295D02*
D03*
X201476D02*
D03*
X202658D02*
D03*
X203839D02*
D03*
X125689D02*
D03*
X126870D02*
D03*
X128051D02*
D03*
X129232D02*
D03*
X130413D02*
D03*
X131595D02*
D03*
X132776D02*
D03*
X194291Y77854D02*
D03*
X195472D02*
D03*
X196653D02*
D03*
X197835D02*
D03*
X199016D02*
D03*
X200197D02*
D03*
X201378D02*
D03*
X123228D02*
D03*
X124409D02*
D03*
X125591D02*
D03*
X126772D02*
D03*
X127953D02*
D03*
X129134D02*
D03*
X130315D02*
D03*
X125689Y146752D02*
D03*
X126870D02*
D03*
X128051D02*
D03*
X129232D02*
D03*
X130413D02*
D03*
X131595D02*
D03*
X132776D02*
D03*
X203839D02*
D03*
X202658D02*
D03*
X201476D02*
D03*
X200295D02*
D03*
X199114D02*
D03*
X197933D02*
D03*
X196752D02*
D03*
X123228Y81201D02*
D03*
X124409D02*
D03*
X125591D02*
D03*
X126772D02*
D03*
X127953D02*
D03*
X129134D02*
D03*
X130315D02*
D03*
X201378D02*
D03*
X200197D02*
D03*
X199016D02*
D03*
X197835D02*
D03*
X196654D02*
D03*
X195473D02*
D03*
X194291D02*
D03*
X196752Y15256D02*
D03*
X197933D02*
D03*
X199114D02*
D03*
X200295D02*
D03*
X201476D02*
D03*
X202658D02*
D03*
X203839D02*
D03*
X172047Y113779D02*
D03*
Y112598D02*
D03*
Y111417D02*
D03*
Y110236D02*
D03*
Y109055D02*
D03*
Y107874D02*
D03*
Y106693D02*
D03*
X168504D02*
D03*
Y107874D02*
D03*
Y109055D02*
D03*
Y110236D02*
D03*
Y111417D02*
D03*
Y112598D02*
D03*
Y113779D02*
D03*
X93602Y50886D02*
D03*
Y49705D02*
D03*
Y48524D02*
D03*
Y47343D02*
D03*
Y46161D02*
D03*
Y44980D02*
D03*
Y43799D02*
D03*
X168307Y51968D02*
D03*
Y50787D02*
D03*
Y49606D02*
D03*
Y48425D02*
D03*
Y47244D02*
D03*
Y46063D02*
D03*
Y44882D02*
D03*
X171850D02*
D03*
Y46063D02*
D03*
Y47244D02*
D03*
Y48425D02*
D03*
Y49606D02*
D03*
Y50787D02*
D03*
Y51968D02*
D03*
X97441Y112845D02*
D03*
Y114026D02*
D03*
Y115207D02*
D03*
Y116388D02*
D03*
Y117569D02*
D03*
Y118750D02*
D03*
Y119931D02*
D03*
X97342Y50886D02*
D03*
Y49705D02*
D03*
Y48524D02*
D03*
Y47343D02*
D03*
Y46161D02*
D03*
Y44980D02*
D03*
Y43799D02*
D03*
X132776Y15256D02*
D03*
X131595D02*
D03*
X130413D02*
D03*
X129232D02*
D03*
X128051D02*
D03*
X126870D02*
D03*
X125689D02*
D03*
D19*
X45221Y21579D02*
D03*
X86559D02*
D03*
X45221Y112524D02*
D03*
X86559D02*
D03*
D20*
X45221Y93453D02*
D03*
X86559D02*
D03*
X45221Y184398D02*
D03*
X86559D02*
D03*
D21*
X28095Y46098D02*
D03*
Y61847D02*
D03*
Y53973D02*
D03*
X69433Y46098D02*
D03*
Y61847D02*
D03*
Y53973D02*
D03*
X28095Y137043D02*
D03*
Y152791D02*
D03*
Y144917D02*
D03*
X69433Y137043D02*
D03*
Y152791D02*
D03*
Y144917D02*
D03*
X111189Y42543D02*
D03*
Y58291D02*
D03*
Y50417D02*
D03*
X132252Y21374D02*
D03*
X149969D02*
D03*
Y46965D02*
D03*
X185992Y42543D02*
D03*
Y58291D02*
D03*
Y50417D02*
D03*
X207055Y21374D02*
D03*
X224772D02*
D03*
Y46965D02*
D03*
X111189Y108882D02*
D03*
Y124630D02*
D03*
Y116756D02*
D03*
X132252Y87713D02*
D03*
X149969D02*
D03*
Y113303D02*
D03*
X185992Y108882D02*
D03*
Y124630D02*
D03*
Y116756D02*
D03*
X207055Y87713D02*
D03*
X224772D02*
D03*
Y113303D02*
D03*
D22*
X28095Y69721D02*
D03*
X69433D02*
D03*
X28095Y160665D02*
D03*
X69433D02*
D03*
X111189Y66165D02*
D03*
X132252Y46965D02*
D03*
X185992Y66165D02*
D03*
X207055Y46965D02*
D03*
X111189Y132504D02*
D03*
X132252Y113303D02*
D03*
X185992Y132504D02*
D03*
X207055Y113303D02*
D03*
D23*
X27110Y88618D02*
D03*
Y26807D02*
D03*
X68449Y88618D02*
D03*
Y26807D02*
D03*
X27110Y179563D02*
D03*
Y117752D02*
D03*
X68449Y179563D02*
D03*
Y117752D02*
D03*
X215476Y197961D02*
D03*
X143110Y158268D02*
D03*
X157252Y60154D02*
D03*
X111976Y23933D02*
D03*
X232055Y60154D02*
D03*
X186779Y23933D02*
D03*
X157252Y126492D02*
D03*
X111976Y90272D02*
D03*
X232055Y126492D02*
D03*
X186779Y90272D02*
D03*
D24*
X39709Y45311D02*
D03*
X40890Y33894D02*
D03*
X81047Y45311D02*
D03*
X82228Y33894D02*
D03*
X39709Y136256D02*
D03*
X40890Y124839D02*
D03*
X81047Y136256D02*
D03*
X82228Y124839D02*
D03*
X195473Y184252D02*
D03*
X160039Y156299D02*
D03*
X136386Y40075D02*
D03*
X211189D02*
D03*
X136386Y106413D02*
D03*
X211189D02*
D03*
D25*
X125394Y189815D02*
D03*
D26*
Y181913D02*
D03*
Y174016D02*
D03*
Y166114D02*
D03*
D27*
X173504Y168881D02*
D03*
D28*
X193504D02*
D03*
X213504D02*
D03*
M02*
