G04*
G04 #@! TF.GenerationSoftware,Altium Limited,Altium Designer,20.1.8 (145)*
G04*
G04 Layer_Physical_Order=2*
G04 Layer_Color=16711680*
%FSLAX25Y25*%
%MOIN*%
G70*
G04*
G04 #@! TF.SameCoordinates,97AE0E28-4285-446D-9869-D3FBB0DEE563*
G04*
G04*
G04 #@! TF.FilePolarity,Positive*
G04*
G01*
G75*
%ADD11R,0.03150X0.03150*%
G04:AMPARAMS|DCode=12|XSize=31.5mil|YSize=31.5mil|CornerRadius=7.87mil|HoleSize=0mil|Usage=FLASHONLY|Rotation=270.000|XOffset=0mil|YOffset=0mil|HoleType=Round|Shape=RoundedRectangle|*
%AMROUNDEDRECTD12*
21,1,0.03150,0.01575,0,0,270.0*
21,1,0.01575,0.03150,0,0,270.0*
1,1,0.01575,-0.00787,-0.00787*
1,1,0.01575,-0.00787,0.00787*
1,1,0.01575,0.00787,0.00787*
1,1,0.01575,0.00787,-0.00787*
%
%ADD12ROUNDEDRECTD12*%
%ADD14C,0.01000*%
%ADD15C,0.01181*%
G04:AMPARAMS|DCode=16|XSize=31.5mil|YSize=31.5mil|CornerRadius=7.87mil|HoleSize=0mil|Usage=FLASHONLY|Rotation=0.000|XOffset=0mil|YOffset=0mil|HoleType=Round|Shape=RoundedRectangle|*
%AMROUNDEDRECTD16*
21,1,0.03150,0.01575,0,0,0.0*
21,1,0.01575,0.03150,0,0,0.0*
1,1,0.01575,0.00787,-0.00787*
1,1,0.01575,-0.00787,-0.00787*
1,1,0.01575,-0.00787,0.00787*
1,1,0.01575,0.00787,0.00787*
%
%ADD16ROUNDEDRECTD16*%
%ADD17R,0.03150X0.03150*%
%ADD18C,0.00122*%
%ADD19C,0.04724*%
%ADD20R,0.04724X0.04724*%
%ADD21C,0.05906*%
%ADD22R,0.05906X0.05906*%
%ADD23C,0.11811*%
%ADD24C,0.02362*%
%ADD25R,0.04528X0.04528*%
%ADD26C,0.04528*%
%ADD27R,0.09843X0.09843*%
%ADD28C,0.09843*%
G36*
X90888Y187870D02*
X90496Y109484D01*
X88943D01*
X88773Y109984D01*
X88957Y110126D01*
X89496Y110828D01*
X89835Y111646D01*
X89950Y112524D01*
X89835Y113401D01*
X89496Y114219D01*
X88957Y114922D01*
X88255Y115461D01*
X87437Y115799D01*
X86559Y115915D01*
X85681Y115799D01*
X84864Y115461D01*
X84161Y114922D01*
X83622Y114219D01*
X83599Y114163D01*
X82468D01*
X80160Y116471D01*
X80160Y116471D01*
X79865Y116767D01*
Y122826D01*
X79748Y123412D01*
X79417Y123908D01*
X77852Y125472D01*
Y136635D01*
X78314Y136826D01*
X78834Y136307D01*
X78824Y136256D01*
X78993Y135405D01*
X79475Y134684D01*
X80196Y134201D01*
X81047Y134032D01*
X81898Y134201D01*
X82620Y134684D01*
X83102Y135405D01*
X83271Y136256D01*
X83102Y137107D01*
X82620Y137828D01*
X81898Y138311D01*
X81047Y138480D01*
X80997Y138470D01*
X77820Y141646D01*
X78028Y142146D01*
X78898D01*
Y147295D01*
X73748D01*
Y146447D01*
X73078D01*
X72886Y146911D01*
X72252Y147737D01*
X71427Y148370D01*
X70911Y148584D01*
Y149125D01*
X71427Y149339D01*
X72252Y149972D01*
X72886Y150798D01*
X73169Y151481D01*
X73220Y151606D01*
X73705Y151468D01*
X73713Y151413D01*
X73713Y151365D01*
Y151126D01*
X75823D01*
Y153236D01*
X75536D01*
X74838Y153097D01*
X74247Y152702D01*
X73852Y152111D01*
X73801Y151857D01*
X73308Y151938D01*
X73339Y152175D01*
X73420Y152791D01*
X73284Y153823D01*
X72886Y154785D01*
X72252Y155611D01*
X71468Y156213D01*
X71467Y156269D01*
X71802Y156713D01*
X73386D01*
Y160165D01*
X69433D01*
X65480D01*
Y156713D01*
X67064D01*
X67399Y156269D01*
X67399Y156213D01*
X66614Y155611D01*
X65980Y154785D01*
X65582Y153823D01*
X65446Y152791D01*
X65582Y151760D01*
X65980Y150798D01*
X66614Y149972D01*
X67440Y149339D01*
X67956Y149125D01*
Y148584D01*
X67440Y148370D01*
X66614Y147737D01*
X65980Y146911D01*
X65582Y145949D01*
X65446Y144917D01*
X65582Y143886D01*
X65980Y142924D01*
X66614Y142098D01*
X67440Y141465D01*
X67956Y141251D01*
Y140710D01*
X67440Y140496D01*
X66614Y139863D01*
X65980Y139037D01*
X65582Y138075D01*
X65446Y137043D01*
X65582Y136012D01*
X65980Y135050D01*
X66614Y134224D01*
X67440Y133591D01*
X68401Y133192D01*
X69433Y133056D01*
X70465Y133192D01*
X71427Y133591D01*
X72252Y134224D01*
X72886Y135050D01*
X73284Y136012D01*
X73420Y137043D01*
X73284Y138075D01*
X72886Y139037D01*
X72252Y139863D01*
X71427Y140496D01*
X70911Y140710D01*
Y141251D01*
X71427Y141465D01*
X72252Y142098D01*
X72886Y142924D01*
X73078Y143388D01*
X73748D01*
Y142146D01*
X74597D01*
Y141177D01*
X74713Y140592D01*
X74794Y140472D01*
Y124839D01*
X74910Y124253D01*
X75242Y123757D01*
X76806Y122193D01*
Y116133D01*
X76922Y115548D01*
X77254Y115052D01*
X77997Y114308D01*
X77997Y114308D01*
X80753Y111552D01*
X81249Y111221D01*
X81835Y111105D01*
X83508D01*
X83622Y110828D01*
X84161Y110126D01*
X84346Y109984D01*
X84176Y109484D01*
X59000D01*
Y188224D01*
X83111D01*
X83197Y187760D01*
X83197Y187724D01*
Y184898D01*
X86559D01*
X89921D01*
Y187724D01*
X89921Y187760D01*
X90007Y188224D01*
X90535D01*
X90888Y187870D01*
D02*
G37*
G36*
X49549D02*
X49158Y109484D01*
X47604D01*
X47434Y109984D01*
X47618Y110126D01*
X48157Y110828D01*
X48496Y111646D01*
X48612Y112524D01*
X48496Y113401D01*
X48157Y114219D01*
X47618Y114922D01*
X46916Y115461D01*
X46098Y115799D01*
X45221Y115915D01*
X44343Y115799D01*
X43525Y115461D01*
X42823Y114922D01*
X42284Y114219D01*
X42260Y114163D01*
X41130D01*
X38822Y116471D01*
X38822Y116471D01*
X38526Y116767D01*
Y122826D01*
X38410Y123412D01*
X38078Y123908D01*
X36514Y125472D01*
Y136635D01*
X36976Y136826D01*
X37495Y136307D01*
X37485Y136256D01*
X37654Y135405D01*
X38136Y134684D01*
X38858Y134201D01*
X39709Y134032D01*
X40560Y134201D01*
X41281Y134684D01*
X41763Y135405D01*
X41932Y136256D01*
X41763Y137107D01*
X41281Y137828D01*
X40560Y138311D01*
X39709Y138480D01*
X39658Y138470D01*
X36482Y141646D01*
X36689Y142146D01*
X37559D01*
Y147295D01*
X32410D01*
Y146447D01*
X31740D01*
X31547Y146911D01*
X30914Y147737D01*
X30088Y148370D01*
X29572Y148584D01*
Y149125D01*
X30088Y149339D01*
X30914Y149972D01*
X31547Y150798D01*
X31830Y151481D01*
X31882Y151606D01*
X32366Y151468D01*
X32375Y151413D01*
X32375Y151365D01*
Y151126D01*
X34484D01*
Y153236D01*
X34197D01*
X33500Y153097D01*
X32908Y152702D01*
X32513Y152111D01*
X32463Y151857D01*
X31969Y151938D01*
X32000Y152175D01*
X32081Y152791D01*
X31945Y153823D01*
X31547Y154785D01*
X30914Y155611D01*
X30129Y156213D01*
X30128Y156269D01*
X30464Y156713D01*
X32047D01*
Y160165D01*
X28095D01*
X24142D01*
Y156713D01*
X25725D01*
X26061Y156269D01*
X26060Y156213D01*
X25275Y155611D01*
X24642Y154785D01*
X24243Y153823D01*
X24108Y152791D01*
X24243Y151760D01*
X24642Y150798D01*
X25275Y149972D01*
X26101Y149339D01*
X26617Y149125D01*
Y148584D01*
X26101Y148370D01*
X25275Y147737D01*
X24642Y146911D01*
X24243Y145949D01*
X24108Y144917D01*
X24243Y143886D01*
X24642Y142924D01*
X25275Y142098D01*
X26101Y141465D01*
X26617Y141251D01*
Y140710D01*
X26101Y140496D01*
X25275Y139863D01*
X24642Y139037D01*
X24243Y138075D01*
X24108Y137043D01*
X24243Y136012D01*
X24642Y135050D01*
X25275Y134224D01*
X26101Y133591D01*
X27063Y133192D01*
X28095Y133056D01*
X29126Y133192D01*
X30088Y133591D01*
X30914Y134224D01*
X31547Y135050D01*
X31945Y136012D01*
X32081Y137043D01*
X31945Y138075D01*
X31547Y139037D01*
X30914Y139863D01*
X30088Y140496D01*
X29572Y140710D01*
Y141251D01*
X30088Y141465D01*
X30914Y142098D01*
X31547Y142924D01*
X31740Y143388D01*
X32410D01*
Y142146D01*
X33258D01*
Y141177D01*
X33375Y140592D01*
X33455Y140472D01*
Y124839D01*
X33571Y124253D01*
X33903Y123757D01*
X35467Y122193D01*
Y116133D01*
X35584Y115548D01*
X35915Y115052D01*
X36659Y114308D01*
X36659Y114308D01*
X39415Y111552D01*
X39911Y111221D01*
X40496Y111105D01*
X42169D01*
X42284Y110828D01*
X42823Y110126D01*
X43007Y109984D01*
X42837Y109484D01*
X17661D01*
Y188224D01*
X41773D01*
X41858Y187760D01*
X41858Y187724D01*
Y184898D01*
X45221D01*
X48583D01*
Y187724D01*
X48583Y187760D01*
X48668Y188224D01*
X49197D01*
X49549Y187870D01*
D02*
G37*
G36*
X208650Y199106D02*
X208538Y197961D01*
X208671Y196607D01*
X209066Y195305D01*
X209707Y194106D01*
X210570Y193054D01*
X211621Y192191D01*
X212821Y191550D01*
X214123Y191155D01*
X215476Y191022D01*
X215574Y191031D01*
X215945Y190696D01*
Y174946D01*
X215520Y174659D01*
X215126Y174842D01*
Y177638D01*
X215002Y178258D01*
X214651Y178785D01*
X204099Y189336D01*
X203573Y189687D01*
X202953Y189811D01*
X198443D01*
X198139Y190265D01*
X197548Y190660D01*
X196850Y190799D01*
X195276D01*
X194578Y190660D01*
X193987Y190265D01*
X193592Y189674D01*
X193453Y188976D01*
Y187402D01*
X193592Y186704D01*
X193820Y186363D01*
X193900Y185825D01*
X193418Y185103D01*
X193249Y184252D01*
X193418Y183401D01*
X193900Y182679D01*
X194622Y182197D01*
X195473Y182028D01*
X196324Y182197D01*
X197045Y182679D01*
X197527Y183401D01*
X197696Y184252D01*
X197527Y185103D01*
X197468Y185192D01*
X197548Y185718D01*
X198139Y186113D01*
X198443Y186567D01*
X202281D01*
X211882Y176966D01*
Y174577D01*
X211227Y174378D01*
X210198Y173828D01*
X209297Y173088D01*
X208557Y172187D01*
X208007Y171158D01*
X207668Y170042D01*
X207554Y168881D01*
X207668Y167720D01*
X208007Y166604D01*
X208557Y165575D01*
X209297Y164674D01*
X210198Y163934D01*
X211227Y163384D01*
X212343Y163045D01*
X213504Y162931D01*
X214665Y163045D01*
X215445Y163282D01*
X215945Y162921D01*
Y158268D01*
X181096D01*
X180905Y158730D01*
X185202Y163026D01*
X185553Y163553D01*
X185677Y164173D01*
Y181415D01*
X189876Y185614D01*
X192732D01*
Y190764D01*
X187583D01*
Y187908D01*
X182908Y183233D01*
X182557Y182707D01*
X182433Y182087D01*
Y164845D01*
X175856Y158268D01*
X161019Y158268D01*
X160890Y158354D01*
X160039Y158523D01*
X159188Y158354D01*
X159060Y158268D01*
X150049D01*
X150049Y158268D01*
X149916Y159621D01*
X149521Y160923D01*
X148880Y162123D01*
X148017Y163174D01*
X146965Y164037D01*
X145766Y164678D01*
X144464Y165073D01*
X143110Y165207D01*
X141756Y165073D01*
X140455Y164678D01*
X139255Y164037D01*
X138204Y163174D01*
X137341Y162123D01*
X136699Y160923D01*
X136305Y159621D01*
X136171Y158268D01*
X136171Y158268D01*
X119095D01*
Y199606D01*
X208303Y199606D01*
X208650Y199106D01*
D02*
G37*
G36*
X231661Y133392D02*
X230701Y133298D01*
X229400Y132903D01*
X228200Y132262D01*
X227149Y131399D01*
X226286Y130347D01*
X225644Y129148D01*
X225250Y127846D01*
X225116Y126492D01*
X225250Y125138D01*
X225644Y123837D01*
X226286Y122637D01*
X227149Y121586D01*
X228200Y120723D01*
X229400Y120081D01*
X230701Y119686D01*
X231661Y119592D01*
Y89878D01*
X228093D01*
X227591Y90532D01*
X226765Y91165D01*
X225803Y91564D01*
X225272Y91634D01*
Y87713D01*
X224272D01*
Y91634D01*
X223740Y91564D01*
X222778Y91165D01*
X221953Y90532D01*
X221451Y89878D01*
X210376D01*
X209874Y90532D01*
X209049Y91165D01*
X208087Y91564D01*
X207055Y91699D01*
X206023Y91564D01*
X205559Y91371D01*
X199726Y97204D01*
Y122422D01*
X200693Y123388D01*
X205598D01*
X205963Y122841D01*
X206510Y122476D01*
Y117256D01*
X203102D01*
Y109350D01*
X211008D01*
Y117256D01*
X209569D01*
Y122476D01*
X210115Y122841D01*
X210510Y123433D01*
X210649Y124130D01*
Y125705D01*
X210510Y126402D01*
X210115Y126993D01*
X209524Y127388D01*
X208827Y127527D01*
X207252D01*
X206555Y127388D01*
X205963Y126993D01*
X205598Y126447D01*
X200059D01*
X199474Y126330D01*
X198978Y125999D01*
X197115Y124137D01*
X191264Y118285D01*
X189637D01*
X189445Y118749D01*
X188811Y119575D01*
X187986Y120209D01*
X187470Y120422D01*
Y120964D01*
X187986Y121177D01*
X188811Y121811D01*
X189445Y122636D01*
X189843Y123598D01*
X189979Y124630D01*
X189843Y125662D01*
X189445Y126623D01*
X188811Y127449D01*
X188026Y128051D01*
X188026Y128107D01*
X188361Y128551D01*
X189945D01*
Y132004D01*
X185992D01*
Y133004D01*
X189945D01*
Y136441D01*
X222213Y136441D01*
X231661D01*
Y133392D01*
D02*
G37*
G36*
X156858D02*
X155898Y133298D01*
X154597Y132903D01*
X153397Y132262D01*
X152345Y131399D01*
X151482Y130347D01*
X150841Y129148D01*
X150446Y127846D01*
X150313Y126492D01*
X150446Y125138D01*
X150841Y123837D01*
X151482Y122637D01*
X152345Y121586D01*
X153397Y120723D01*
X154597Y120081D01*
X155898Y119686D01*
X156858Y119592D01*
Y89878D01*
X153289D01*
X152788Y90532D01*
X151962Y91165D01*
X151000Y91564D01*
X150469Y91634D01*
Y87713D01*
X149469D01*
Y91634D01*
X148937Y91564D01*
X147975Y91165D01*
X147149Y90532D01*
X146648Y89878D01*
X135573D01*
X135071Y90532D01*
X134245Y91165D01*
X133284Y91564D01*
X132252Y91699D01*
X131220Y91564D01*
X130756Y91371D01*
X124923Y97204D01*
Y122422D01*
X125889Y123388D01*
X130795D01*
X131160Y122841D01*
X131707Y122476D01*
Y117256D01*
X128299D01*
Y109350D01*
X136205D01*
Y117256D01*
X134766D01*
Y122476D01*
X135312Y122841D01*
X135707Y123433D01*
X135846Y124130D01*
Y125705D01*
X135707Y126402D01*
X135312Y126993D01*
X134721Y127388D01*
X134024Y127527D01*
X132449D01*
X131751Y127388D01*
X131160Y126993D01*
X130795Y126447D01*
X125256D01*
X124671Y126330D01*
X124174Y125999D01*
X122312Y124137D01*
X116461Y118285D01*
X114834D01*
X114642Y118749D01*
X114008Y119575D01*
X113182Y120209D01*
X112666Y120422D01*
Y120964D01*
X113182Y121177D01*
X114008Y121811D01*
X114642Y122636D01*
X115040Y123598D01*
X115176Y124630D01*
X115040Y125662D01*
X114642Y126623D01*
X114008Y127449D01*
X113223Y128051D01*
X113223Y128107D01*
X113558Y128551D01*
X115142D01*
Y132004D01*
X111189D01*
Y133004D01*
X115142D01*
Y136441D01*
X147409Y136441D01*
X156858D01*
Y133392D01*
D02*
G37*
G36*
X196668Y118710D02*
Y96571D01*
X196784Y95986D01*
X197115Y95489D01*
X202265Y90340D01*
X202074Y89878D01*
X194052D01*
X193716Y90248D01*
X193719Y90272D01*
X193585Y91625D01*
X193190Y92927D01*
X192549Y94127D01*
X191686Y95178D01*
X190635Y96041D01*
X189435Y96682D01*
X188133Y97077D01*
X186779Y97211D01*
X185426Y97077D01*
X184124Y96682D01*
X182924Y96041D01*
X182161Y95415D01*
X181661Y95651D01*
Y107757D01*
X182141Y107850D01*
X182539Y106888D01*
X183173Y106063D01*
X183999Y105429D01*
X184960Y105031D01*
X185992Y104895D01*
X187024Y105031D01*
X187986Y105429D01*
X188811Y106063D01*
X189445Y106888D01*
X189843Y107850D01*
X189979Y108882D01*
X189843Y109914D01*
X189445Y110875D01*
X188811Y111701D01*
X187986Y112335D01*
X187470Y112548D01*
Y113090D01*
X187986Y113303D01*
X188811Y113937D01*
X189445Y114762D01*
X189637Y115226D01*
X191898D01*
X192483Y115343D01*
X192979Y115674D01*
X196205Y118901D01*
X196668Y118710D01*
D02*
G37*
G36*
X121864D02*
Y96571D01*
X121981Y95986D01*
X122312Y95489D01*
X127462Y90340D01*
X127270Y89878D01*
X119249D01*
X118913Y90248D01*
X118915Y90272D01*
X118782Y91625D01*
X118387Y92927D01*
X117746Y94127D01*
X116883Y95178D01*
X115831Y96041D01*
X114632Y96682D01*
X113330Y97077D01*
X111976Y97211D01*
X110623Y97077D01*
X109321Y96682D01*
X108121Y96041D01*
X107358Y95415D01*
X106858Y95651D01*
Y107757D01*
X107338Y107850D01*
X107736Y106888D01*
X108370Y106063D01*
X109196Y105429D01*
X110157Y105031D01*
X111189Y104895D01*
X112221Y105031D01*
X113182Y105429D01*
X114008Y106063D01*
X114642Y106888D01*
X115040Y107850D01*
X115176Y108882D01*
X115040Y109914D01*
X114642Y110875D01*
X114008Y111701D01*
X113182Y112335D01*
X112666Y112548D01*
Y113090D01*
X113182Y113303D01*
X114008Y113937D01*
X114642Y114762D01*
X114834Y115226D01*
X117095D01*
X117680Y115343D01*
X118176Y115674D01*
X121402Y118901D01*
X121864Y118710D01*
D02*
G37*
G36*
X90888Y96925D02*
X90496Y18539D01*
X88943D01*
X88773Y19039D01*
X88957Y19181D01*
X89496Y19883D01*
X89835Y20701D01*
X89950Y21579D01*
X89835Y22456D01*
X89496Y23274D01*
X88957Y23977D01*
X88255Y24516D01*
X87437Y24854D01*
X86559Y24970D01*
X85681Y24854D01*
X84864Y24516D01*
X84161Y23977D01*
X83622Y23274D01*
X83599Y23218D01*
X82468D01*
X80160Y25526D01*
X80160Y25526D01*
X79865Y25822D01*
Y31881D01*
X79748Y32467D01*
X79417Y32963D01*
X77852Y34527D01*
Y45690D01*
X78314Y45881D01*
X78834Y45362D01*
X78824Y45311D01*
X78993Y44460D01*
X79475Y43739D01*
X80196Y43257D01*
X81047Y43087D01*
X81898Y43257D01*
X82620Y43739D01*
X83102Y44460D01*
X83271Y45311D01*
X83102Y46162D01*
X82620Y46883D01*
X81898Y47366D01*
X81047Y47535D01*
X80997Y47525D01*
X77820Y50701D01*
X78028Y51201D01*
X78898D01*
Y56350D01*
X73748D01*
Y55502D01*
X73078D01*
X72886Y55966D01*
X72252Y56792D01*
X71427Y57425D01*
X70911Y57639D01*
Y58180D01*
X71427Y58394D01*
X72252Y59027D01*
X72886Y59853D01*
X73169Y60536D01*
X73220Y60661D01*
X73705Y60523D01*
X73713Y60469D01*
X73713Y60420D01*
Y60181D01*
X75823D01*
Y62291D01*
X75536D01*
X74838Y62152D01*
X74247Y61757D01*
X73852Y61166D01*
X73801Y60912D01*
X73308Y60993D01*
X73339Y61231D01*
X73420Y61847D01*
X73284Y62878D01*
X72886Y63840D01*
X72252Y64666D01*
X71468Y65268D01*
X71467Y65324D01*
X71802Y65768D01*
X73386D01*
Y69221D01*
X69433D01*
X65480D01*
Y65768D01*
X67064D01*
X67399Y65324D01*
X67399Y65268D01*
X66614Y64666D01*
X65980Y63840D01*
X65582Y62878D01*
X65446Y61847D01*
X65582Y60815D01*
X65980Y59853D01*
X66614Y59027D01*
X67440Y58394D01*
X67956Y58180D01*
Y57639D01*
X67440Y57425D01*
X66614Y56792D01*
X65980Y55966D01*
X65582Y55004D01*
X65446Y53973D01*
X65582Y52941D01*
X65980Y51979D01*
X66614Y51153D01*
X67440Y50520D01*
X67956Y50306D01*
Y49765D01*
X67440Y49551D01*
X66614Y48918D01*
X65980Y48092D01*
X65582Y47130D01*
X65446Y46098D01*
X65582Y45067D01*
X65980Y44105D01*
X66614Y43279D01*
X67440Y42646D01*
X68401Y42247D01*
X69433Y42112D01*
X70465Y42247D01*
X71427Y42646D01*
X72252Y43279D01*
X72886Y44105D01*
X73284Y45067D01*
X73420Y46098D01*
X73284Y47130D01*
X72886Y48092D01*
X72252Y48918D01*
X71427Y49551D01*
X70911Y49765D01*
Y50306D01*
X71427Y50520D01*
X72252Y51153D01*
X72886Y51979D01*
X73078Y52443D01*
X73748D01*
Y51201D01*
X74597D01*
Y50232D01*
X74713Y49647D01*
X74794Y49527D01*
Y33894D01*
X74910Y33308D01*
X75242Y32812D01*
X76806Y31248D01*
Y25189D01*
X76922Y24603D01*
X77254Y24107D01*
X77997Y23363D01*
X77997Y23363D01*
X80753Y20608D01*
X81249Y20276D01*
X81835Y20160D01*
X83508D01*
X83622Y19883D01*
X84161Y19181D01*
X84346Y19039D01*
X84176Y18539D01*
X59000D01*
Y97280D01*
X83111D01*
X83197Y96815D01*
X83197Y96780D01*
Y93953D01*
X86559D01*
X89921D01*
Y96780D01*
X89921Y96815D01*
X90007Y97280D01*
X90535D01*
X90888Y96925D01*
D02*
G37*
G36*
X49549D02*
X49158Y18539D01*
X47604D01*
X47434Y19039D01*
X47618Y19181D01*
X48157Y19883D01*
X48496Y20701D01*
X48612Y21579D01*
X48496Y22456D01*
X48157Y23274D01*
X47618Y23977D01*
X46916Y24516D01*
X46098Y24854D01*
X45221Y24970D01*
X44343Y24854D01*
X43525Y24516D01*
X42823Y23977D01*
X42284Y23274D01*
X42260Y23218D01*
X41130D01*
X38822Y25526D01*
X38822Y25526D01*
X38526Y25822D01*
Y31881D01*
X38410Y32467D01*
X38078Y32963D01*
X36514Y34527D01*
Y45690D01*
X36976Y45881D01*
X37495Y45362D01*
X37485Y45311D01*
X37654Y44460D01*
X38136Y43739D01*
X38858Y43257D01*
X39709Y43087D01*
X40560Y43257D01*
X41281Y43739D01*
X41763Y44460D01*
X41932Y45311D01*
X41763Y46162D01*
X41281Y46883D01*
X40560Y47366D01*
X39709Y47535D01*
X39658Y47525D01*
X36482Y50701D01*
X36689Y51201D01*
X37559D01*
Y56350D01*
X32410D01*
Y55502D01*
X31740D01*
X31547Y55966D01*
X30914Y56792D01*
X30088Y57425D01*
X29572Y57639D01*
Y58180D01*
X30088Y58394D01*
X30914Y59027D01*
X31547Y59853D01*
X31830Y60536D01*
X31882Y60661D01*
X32366Y60523D01*
X32375Y60469D01*
X32375Y60420D01*
Y60181D01*
X34484D01*
Y62291D01*
X34197D01*
X33500Y62152D01*
X32908Y61757D01*
X32513Y61166D01*
X32463Y60912D01*
X31969Y60993D01*
X32000Y61231D01*
X32081Y61847D01*
X31945Y62878D01*
X31547Y63840D01*
X30914Y64666D01*
X30129Y65268D01*
X30128Y65324D01*
X30464Y65768D01*
X32047D01*
Y69221D01*
X28095D01*
X24142D01*
Y65768D01*
X25725D01*
X26061Y65324D01*
X26060Y65268D01*
X25275Y64666D01*
X24642Y63840D01*
X24243Y62878D01*
X24108Y61847D01*
X24243Y60815D01*
X24642Y59853D01*
X25275Y59027D01*
X26101Y58394D01*
X26617Y58180D01*
Y57639D01*
X26101Y57425D01*
X25275Y56792D01*
X24642Y55966D01*
X24243Y55004D01*
X24108Y53973D01*
X24243Y52941D01*
X24642Y51979D01*
X25275Y51153D01*
X26101Y50520D01*
X26617Y50306D01*
Y49765D01*
X26101Y49551D01*
X25275Y48918D01*
X24642Y48092D01*
X24243Y47130D01*
X24108Y46098D01*
X24243Y45067D01*
X24642Y44105D01*
X25275Y43279D01*
X26101Y42646D01*
X27063Y42247D01*
X28095Y42112D01*
X29126Y42247D01*
X30088Y42646D01*
X30914Y43279D01*
X31547Y44105D01*
X31945Y45067D01*
X32081Y46098D01*
X31945Y47130D01*
X31547Y48092D01*
X30914Y48918D01*
X30088Y49551D01*
X29572Y49765D01*
Y50306D01*
X30088Y50520D01*
X30914Y51153D01*
X31547Y51979D01*
X31740Y52443D01*
X32410D01*
Y51201D01*
X33258D01*
Y50232D01*
X33375Y49647D01*
X33455Y49527D01*
Y33894D01*
X33571Y33308D01*
X33903Y32812D01*
X35467Y31248D01*
Y25189D01*
X35584Y24603D01*
X35915Y24107D01*
X36659Y23363D01*
X36659Y23363D01*
X39415Y20608D01*
X39911Y20276D01*
X40496Y20160D01*
X42169D01*
X42284Y19883D01*
X42823Y19181D01*
X43007Y19039D01*
X42837Y18539D01*
X17661D01*
Y97280D01*
X41773D01*
X41858Y96815D01*
X41858Y96780D01*
Y93953D01*
X45221D01*
X48583D01*
Y96780D01*
X48583Y96815D01*
X48668Y97280D01*
X49197D01*
X49549Y96925D01*
D02*
G37*
G36*
X231661Y67054D02*
X230701Y66959D01*
X229400Y66564D01*
X228200Y65923D01*
X227149Y65060D01*
X226286Y64009D01*
X225644Y62809D01*
X225250Y61507D01*
X225116Y60154D01*
X225250Y58800D01*
X225644Y57498D01*
X226286Y56299D01*
X227149Y55247D01*
X228200Y54384D01*
X229400Y53743D01*
X230701Y53348D01*
X231661Y53253D01*
Y23539D01*
X228093D01*
X227591Y24193D01*
X226765Y24827D01*
X225803Y25225D01*
X225272Y25295D01*
Y21374D01*
X224272D01*
Y25295D01*
X223740Y25225D01*
X222778Y24827D01*
X221953Y24193D01*
X221451Y23539D01*
X210376D01*
X209874Y24193D01*
X209049Y24827D01*
X208087Y25225D01*
X207055Y25361D01*
X206023Y25225D01*
X205559Y25033D01*
X199726Y30866D01*
Y56083D01*
X200693Y57049D01*
X205598D01*
X205963Y56503D01*
X206510Y56137D01*
Y50917D01*
X203102D01*
Y43012D01*
X211008D01*
Y50917D01*
X209569D01*
Y56137D01*
X210115Y56503D01*
X210510Y57094D01*
X210649Y57791D01*
Y59366D01*
X210510Y60064D01*
X210115Y60655D01*
X209524Y61050D01*
X208827Y61189D01*
X207252D01*
X206555Y61050D01*
X205963Y60655D01*
X205598Y60108D01*
X200059D01*
X199474Y59992D01*
X198978Y59660D01*
X197115Y57798D01*
X191264Y51947D01*
X189637D01*
X189445Y52411D01*
X188811Y53237D01*
X187986Y53870D01*
X187470Y54084D01*
Y54625D01*
X187986Y54839D01*
X188811Y55472D01*
X189445Y56298D01*
X189843Y57260D01*
X189979Y58291D01*
X189843Y59323D01*
X189445Y60285D01*
X188811Y61111D01*
X188026Y61713D01*
X188026Y61769D01*
X188361Y62213D01*
X189945D01*
Y65665D01*
X185992D01*
Y66665D01*
X189945D01*
Y70102D01*
X222213Y70102D01*
X231661D01*
Y67054D01*
D02*
G37*
G36*
X156858D02*
X155898Y66959D01*
X154597Y66564D01*
X153397Y65923D01*
X152345Y65060D01*
X151482Y64009D01*
X150841Y62809D01*
X150446Y61507D01*
X150313Y60154D01*
X150446Y58800D01*
X150841Y57498D01*
X151482Y56299D01*
X152345Y55247D01*
X153397Y54384D01*
X154597Y53743D01*
X155898Y53348D01*
X156858Y53253D01*
Y23539D01*
X153289D01*
X152788Y24193D01*
X151962Y24827D01*
X151000Y25225D01*
X150469Y25295D01*
Y21374D01*
X149469D01*
Y25295D01*
X148937Y25225D01*
X147975Y24827D01*
X147149Y24193D01*
X146648Y23539D01*
X135573D01*
X135071Y24193D01*
X134245Y24827D01*
X133284Y25225D01*
X132252Y25361D01*
X131220Y25225D01*
X130756Y25033D01*
X124923Y30866D01*
Y56083D01*
X125889Y57049D01*
X130795D01*
X131160Y56503D01*
X131707Y56137D01*
Y50917D01*
X128299D01*
Y43012D01*
X136205D01*
Y50917D01*
X134766D01*
Y56137D01*
X135312Y56503D01*
X135707Y57094D01*
X135846Y57791D01*
Y59366D01*
X135707Y60064D01*
X135312Y60655D01*
X134721Y61050D01*
X134024Y61189D01*
X132449D01*
X131751Y61050D01*
X131160Y60655D01*
X130795Y60108D01*
X125256D01*
X124671Y59992D01*
X124174Y59660D01*
X122312Y57798D01*
X116461Y51947D01*
X114834D01*
X114642Y52411D01*
X114008Y53237D01*
X113182Y53870D01*
X112666Y54084D01*
Y54625D01*
X113182Y54839D01*
X114008Y55472D01*
X114642Y56298D01*
X115040Y57260D01*
X115176Y58291D01*
X115040Y59323D01*
X114642Y60285D01*
X114008Y61111D01*
X113223Y61713D01*
X113223Y61769D01*
X113558Y62213D01*
X115142D01*
Y65665D01*
X111189D01*
Y66665D01*
X115142D01*
Y70102D01*
X147409Y70102D01*
X156858D01*
Y67054D01*
D02*
G37*
G36*
X196668Y52371D02*
Y30232D01*
X196784Y29647D01*
X197115Y29151D01*
X202265Y24001D01*
X202074Y23539D01*
X194052D01*
X193716Y23910D01*
X193719Y23933D01*
X193585Y25287D01*
X193190Y26588D01*
X192549Y27788D01*
X191686Y28840D01*
X190635Y29703D01*
X189435Y30344D01*
X188133Y30739D01*
X186779Y30872D01*
X185426Y30739D01*
X184124Y30344D01*
X182924Y29703D01*
X182161Y29076D01*
X181661Y29313D01*
Y41418D01*
X182141Y41511D01*
X182539Y40550D01*
X183173Y39724D01*
X183999Y39091D01*
X184960Y38692D01*
X185992Y38557D01*
X187024Y38692D01*
X187986Y39091D01*
X188811Y39724D01*
X189445Y40550D01*
X189843Y41511D01*
X189979Y42543D01*
X189843Y43575D01*
X189445Y44537D01*
X188811Y45362D01*
X187986Y45996D01*
X187470Y46210D01*
Y46751D01*
X187986Y46965D01*
X188811Y47598D01*
X189445Y48424D01*
X189637Y48888D01*
X191898D01*
X192483Y49004D01*
X192979Y49336D01*
X196205Y52562D01*
X196668Y52371D01*
D02*
G37*
G36*
X121864D02*
Y30232D01*
X121981Y29647D01*
X122312Y29151D01*
X127462Y24001D01*
X127270Y23539D01*
X119249D01*
X118913Y23910D01*
X118915Y23933D01*
X118782Y25287D01*
X118387Y26588D01*
X117746Y27788D01*
X116883Y28840D01*
X115831Y29703D01*
X114632Y30344D01*
X113330Y30739D01*
X111976Y30872D01*
X110623Y30739D01*
X109321Y30344D01*
X108121Y29703D01*
X107358Y29076D01*
X106858Y29313D01*
Y41418D01*
X107338Y41511D01*
X107736Y40550D01*
X108370Y39724D01*
X109196Y39091D01*
X110157Y38692D01*
X111189Y38557D01*
X112221Y38692D01*
X113182Y39091D01*
X114008Y39724D01*
X114642Y40550D01*
X115040Y41511D01*
X115176Y42543D01*
X115040Y43575D01*
X114642Y44537D01*
X114008Y45362D01*
X113182Y45996D01*
X112666Y46210D01*
Y46751D01*
X113182Y46965D01*
X114008Y47598D01*
X114642Y48424D01*
X114834Y48888D01*
X117095D01*
X117680Y49004D01*
X118176Y49336D01*
X121402Y52562D01*
X121864Y52371D01*
D02*
G37*
%LPC*%
G36*
X89921Y183898D02*
X87059D01*
Y181035D01*
X89921D01*
Y183898D01*
D02*
G37*
G36*
X86059D02*
X83197D01*
Y181035D01*
X86059D01*
Y183898D01*
D02*
G37*
G36*
X68449Y186502D02*
X67095Y186369D01*
X65794Y185974D01*
X64594Y185333D01*
X63542Y184470D01*
X62679Y183418D01*
X62038Y182219D01*
X61643Y180917D01*
X61510Y179563D01*
X61643Y178209D01*
X62038Y176908D01*
X62679Y175708D01*
X63542Y174656D01*
X64594Y173793D01*
X65794Y173152D01*
X67095Y172757D01*
X68449Y172624D01*
X69803Y172757D01*
X71104Y173152D01*
X72304Y173793D01*
X73356Y174656D01*
X74218Y175708D01*
X74860Y176908D01*
X75254Y178209D01*
X75388Y179563D01*
X75254Y180917D01*
X74860Y182219D01*
X74218Y183418D01*
X73356Y184470D01*
X72304Y185333D01*
X71104Y185974D01*
X69803Y186369D01*
X68449Y186502D01*
D02*
G37*
G36*
X73386Y164618D02*
X69933D01*
Y161165D01*
X73386D01*
Y164618D01*
D02*
G37*
G36*
X68933D02*
X65480D01*
Y161165D01*
X68933D01*
Y164618D01*
D02*
G37*
G36*
X77110Y153236D02*
X76823D01*
Y151126D01*
X78933D01*
Y151413D01*
X78794Y152111D01*
X78399Y152702D01*
X77808Y153097D01*
X77110Y153236D01*
D02*
G37*
G36*
X78933Y150126D02*
X76823D01*
Y148016D01*
X77110D01*
X77808Y148155D01*
X78399Y148550D01*
X78794Y149141D01*
X78933Y149839D01*
Y150126D01*
D02*
G37*
G36*
X75823D02*
X73713D01*
Y149839D01*
X73852Y149141D01*
X74247Y148550D01*
X74838Y148155D01*
X75536Y148016D01*
X75823D01*
Y150126D01*
D02*
G37*
G36*
X82728Y126963D02*
Y125339D01*
X84353D01*
X84283Y125690D01*
X83801Y126411D01*
X83079Y126893D01*
X82728Y126963D01*
D02*
G37*
G36*
X81729D02*
X81377Y126893D01*
X80656Y126411D01*
X80174Y125690D01*
X80104Y125339D01*
X81729D01*
Y126963D01*
D02*
G37*
G36*
X84353Y124339D02*
X82728D01*
Y122714D01*
X83079Y122784D01*
X83801Y123266D01*
X84283Y123988D01*
X84353Y124339D01*
D02*
G37*
G36*
X81729D02*
X80104D01*
X80174Y123988D01*
X80656Y123266D01*
X81377Y122784D01*
X81729Y122714D01*
Y124339D01*
D02*
G37*
G36*
X68449Y124691D02*
X67095Y124558D01*
X65794Y124163D01*
X64594Y123521D01*
X63542Y122659D01*
X62679Y121607D01*
X62038Y120407D01*
X61643Y119106D01*
X61510Y117752D01*
X61643Y116398D01*
X62038Y115097D01*
X62679Y113897D01*
X63542Y112846D01*
X64594Y111983D01*
X65794Y111341D01*
X67095Y110946D01*
X68449Y110813D01*
X69803Y110946D01*
X71104Y111341D01*
X72304Y111983D01*
X73356Y112846D01*
X74218Y113897D01*
X74860Y115097D01*
X75254Y116398D01*
X75388Y117752D01*
X75254Y119106D01*
X74860Y120407D01*
X74218Y121607D01*
X73356Y122659D01*
X72304Y123521D01*
X71104Y124163D01*
X69803Y124558D01*
X68449Y124691D01*
D02*
G37*
G36*
X48583Y183898D02*
X45720D01*
Y181035D01*
X48583D01*
Y183898D01*
D02*
G37*
G36*
X44721D02*
X41858D01*
Y181035D01*
X44721D01*
Y183898D01*
D02*
G37*
G36*
X27110Y186502D02*
X25757Y186369D01*
X24455Y185974D01*
X23255Y185333D01*
X22204Y184470D01*
X21341Y183418D01*
X20699Y182219D01*
X20305Y180917D01*
X20171Y179563D01*
X20305Y178209D01*
X20699Y176908D01*
X21341Y175708D01*
X22204Y174656D01*
X23255Y173793D01*
X24455Y173152D01*
X25757Y172757D01*
X27110Y172624D01*
X28464Y172757D01*
X29766Y173152D01*
X30965Y173793D01*
X32017Y174656D01*
X32880Y175708D01*
X33521Y176908D01*
X33916Y178209D01*
X34049Y179563D01*
X33916Y180917D01*
X33521Y182219D01*
X32880Y183418D01*
X32017Y184470D01*
X30965Y185333D01*
X29766Y185974D01*
X28464Y186369D01*
X27110Y186502D01*
D02*
G37*
G36*
X32047Y164618D02*
X28594D01*
Y161165D01*
X32047D01*
Y164618D01*
D02*
G37*
G36*
X27595D02*
X24142D01*
Y161165D01*
X27595D01*
Y164618D01*
D02*
G37*
G36*
X35772Y153236D02*
X35484D01*
Y151126D01*
X37594D01*
Y151413D01*
X37455Y152111D01*
X37060Y152702D01*
X36469Y153097D01*
X35772Y153236D01*
D02*
G37*
G36*
X37594Y150126D02*
X35484D01*
Y148016D01*
X35772D01*
X36469Y148155D01*
X37060Y148550D01*
X37455Y149141D01*
X37594Y149839D01*
Y150126D01*
D02*
G37*
G36*
X34484D02*
X32375D01*
Y149839D01*
X32513Y149141D01*
X32908Y148550D01*
X33500Y148155D01*
X34197Y148016D01*
X34484D01*
Y150126D01*
D02*
G37*
G36*
X41390Y126963D02*
Y125339D01*
X43014D01*
X42944Y125690D01*
X42462Y126411D01*
X41741Y126893D01*
X41390Y126963D01*
D02*
G37*
G36*
X40390D02*
X40039Y126893D01*
X39317Y126411D01*
X38835Y125690D01*
X38765Y125339D01*
X40390D01*
Y126963D01*
D02*
G37*
G36*
X43014Y124339D02*
X41390D01*
Y122714D01*
X41741Y122784D01*
X42462Y123266D01*
X42944Y123988D01*
X43014Y124339D01*
D02*
G37*
G36*
X40390D02*
X38765D01*
X38835Y123988D01*
X39317Y123266D01*
X40039Y122784D01*
X40390Y122714D01*
Y124339D01*
D02*
G37*
G36*
X27110Y124691D02*
X25757Y124558D01*
X24455Y124163D01*
X23255Y123521D01*
X22204Y122659D01*
X21341Y121607D01*
X20699Y120407D01*
X20305Y119106D01*
X20171Y117752D01*
X20305Y116398D01*
X20699Y115097D01*
X21341Y113897D01*
X22204Y112846D01*
X23255Y111983D01*
X24455Y111341D01*
X25757Y110946D01*
X27110Y110813D01*
X28464Y110946D01*
X29766Y111341D01*
X30965Y111983D01*
X32017Y112846D01*
X32880Y113897D01*
X33521Y115097D01*
X33916Y116398D01*
X34049Y117752D01*
X33916Y119106D01*
X33521Y120407D01*
X32880Y121607D01*
X32017Y122659D01*
X30965Y123521D01*
X29766Y124163D01*
X28464Y124558D01*
X27110Y124691D01*
D02*
G37*
G36*
X128657Y193079D02*
X125894D01*
Y190315D01*
X128657D01*
Y193079D01*
D02*
G37*
G36*
X124894D02*
X122130D01*
Y190315D01*
X124894D01*
Y193079D01*
D02*
G37*
G36*
X128657Y189315D02*
X125894D01*
Y186551D01*
X128657D01*
Y189315D01*
D02*
G37*
G36*
X124894D02*
X122130D01*
Y186551D01*
X124894D01*
Y189315D01*
D02*
G37*
G36*
X125394Y185205D02*
X124542Y185093D01*
X123748Y184764D01*
X123066Y184241D01*
X122543Y183559D01*
X122214Y182765D01*
X122102Y181913D01*
X122214Y181061D01*
X122543Y180267D01*
X123066Y179586D01*
X123748Y179062D01*
X124542Y178734D01*
X125394Y178621D01*
X126246Y178734D01*
X127040Y179062D01*
X127722Y179586D01*
X128245Y180267D01*
X128574Y181061D01*
X128686Y181913D01*
X128574Y182765D01*
X128245Y183559D01*
X127722Y184241D01*
X127040Y184764D01*
X126246Y185093D01*
X125394Y185205D01*
D02*
G37*
G36*
Y177308D02*
X124542Y177196D01*
X123748Y176867D01*
X123066Y176344D01*
X122543Y175662D01*
X122214Y174868D01*
X122102Y174016D01*
X122214Y173164D01*
X122543Y172370D01*
X123066Y171688D01*
X123748Y171165D01*
X124542Y170836D01*
X125394Y170724D01*
X126246Y170836D01*
X127040Y171165D01*
X127722Y171688D01*
X128245Y172370D01*
X128574Y173164D01*
X128686Y174016D01*
X128574Y174868D01*
X128245Y175662D01*
X127722Y176344D01*
X127040Y176867D01*
X126246Y177196D01*
X125394Y177308D01*
D02*
G37*
G36*
X179425Y174802D02*
X174004D01*
Y169381D01*
X179425D01*
Y174802D01*
D02*
G37*
G36*
X173004D02*
X167583D01*
Y169381D01*
X173004D01*
Y174802D01*
D02*
G37*
G36*
X179425Y168381D02*
X174004D01*
Y162960D01*
X179425D01*
Y168381D01*
D02*
G37*
G36*
X173004D02*
X167583D01*
Y162960D01*
X173004D01*
Y168381D01*
D02*
G37*
G36*
X193504Y174831D02*
X192343Y174716D01*
X191227Y174378D01*
X190198Y173828D01*
X189297Y173088D01*
X188557Y172187D01*
X188007Y171158D01*
X187668Y170042D01*
X187554Y168881D01*
X187668Y167720D01*
X188007Y166604D01*
X188557Y165575D01*
X189297Y164674D01*
X190198Y163934D01*
X191227Y163384D01*
X192343Y163045D01*
X193504Y162931D01*
X194665Y163045D01*
X195781Y163384D01*
X196809Y163934D01*
X197711Y164674D01*
X198451Y165575D01*
X199001Y166604D01*
X199339Y167720D01*
X199454Y168881D01*
X199339Y170042D01*
X199001Y171158D01*
X198451Y172187D01*
X197711Y173088D01*
X196809Y173828D01*
X195781Y174378D01*
X194665Y174716D01*
X193504Y174831D01*
D02*
G37*
G36*
X125394Y169406D02*
X124542Y169294D01*
X123748Y168965D01*
X123066Y168442D01*
X122543Y167760D01*
X122214Y166966D01*
X122102Y166114D01*
X122214Y165262D01*
X122543Y164468D01*
X123066Y163786D01*
X123748Y163263D01*
X124542Y162934D01*
X125394Y162822D01*
X126246Y162934D01*
X127040Y163263D01*
X127722Y163786D01*
X128245Y164468D01*
X128574Y165262D01*
X128686Y166114D01*
X128574Y166966D01*
X128245Y167760D01*
X127722Y168442D01*
X127040Y168965D01*
X126246Y169294D01*
X125394Y169406D01*
D02*
G37*
G36*
X225272Y117224D02*
Y113803D01*
X228693D01*
X228623Y114335D01*
X228224Y115297D01*
X227591Y116122D01*
X226765Y116756D01*
X225803Y117154D01*
X225272Y117224D01*
D02*
G37*
G36*
X224272D02*
X223740Y117154D01*
X222778Y116756D01*
X221953Y116122D01*
X221319Y115297D01*
X220921Y114335D01*
X220851Y113803D01*
X224272D01*
Y117224D01*
D02*
G37*
G36*
X228693Y112803D02*
X225272D01*
Y109382D01*
X225803Y109452D01*
X226765Y109851D01*
X227591Y110484D01*
X228224Y111310D01*
X228623Y112271D01*
X228693Y112803D01*
D02*
G37*
G36*
X224272D02*
X220851D01*
X220921Y112271D01*
X221319Y111310D01*
X221953Y110484D01*
X222778Y109851D01*
X223740Y109452D01*
X224272Y109382D01*
Y112803D01*
D02*
G37*
G36*
X216520Y127492D02*
X211370D01*
Y122343D01*
X212323D01*
Y109841D01*
X211102Y108620D01*
X210338Y108468D01*
X209616Y107986D01*
X209134Y107264D01*
X208965Y106413D01*
X209134Y105562D01*
X209616Y104841D01*
X210338Y104359D01*
X211189Y104190D01*
X212040Y104359D01*
X212761Y104841D01*
X213244Y105562D01*
X213396Y106326D01*
X215092Y108023D01*
X215443Y108549D01*
X215567Y109169D01*
Y122343D01*
X216520D01*
Y127492D01*
D02*
G37*
G36*
X150469Y117224D02*
Y113803D01*
X153890D01*
X153820Y114335D01*
X153421Y115297D01*
X152788Y116122D01*
X151962Y116756D01*
X151000Y117154D01*
X150469Y117224D01*
D02*
G37*
G36*
X149469D02*
X148937Y117154D01*
X147975Y116756D01*
X147149Y116122D01*
X146516Y115297D01*
X146117Y114335D01*
X146047Y113803D01*
X149469D01*
Y117224D01*
D02*
G37*
G36*
X153890Y112803D02*
X150469D01*
Y109382D01*
X151000Y109452D01*
X151962Y109851D01*
X152788Y110484D01*
X153421Y111310D01*
X153820Y112271D01*
X153890Y112803D01*
D02*
G37*
G36*
X149469D02*
X146047D01*
X146117Y112271D01*
X146516Y111310D01*
X147149Y110484D01*
X147975Y109851D01*
X148937Y109452D01*
X149469Y109382D01*
Y112803D01*
D02*
G37*
G36*
X141717Y127492D02*
X136567D01*
Y122343D01*
X137520D01*
Y109841D01*
X136299Y108620D01*
X135535Y108468D01*
X134813Y107986D01*
X134331Y107264D01*
X134162Y106413D01*
X134331Y105562D01*
X134813Y104841D01*
X135535Y104359D01*
X136386Y104190D01*
X137237Y104359D01*
X137958Y104841D01*
X138440Y105562D01*
X138592Y106326D01*
X140288Y108023D01*
X140640Y108549D01*
X140763Y109169D01*
Y122343D01*
X141717D01*
Y127492D01*
D02*
G37*
G36*
X89921Y92953D02*
X87059D01*
Y90091D01*
X89921D01*
Y92953D01*
D02*
G37*
G36*
X86059D02*
X83197D01*
Y90091D01*
X86059D01*
Y92953D01*
D02*
G37*
G36*
X68449Y95557D02*
X67095Y95424D01*
X65794Y95029D01*
X64594Y94388D01*
X63542Y93525D01*
X62679Y92473D01*
X62038Y91274D01*
X61643Y89972D01*
X61510Y88618D01*
X61643Y87264D01*
X62038Y85963D01*
X62679Y84763D01*
X63542Y83712D01*
X64594Y82849D01*
X65794Y82207D01*
X67095Y81813D01*
X68449Y81679D01*
X69803Y81813D01*
X71104Y82207D01*
X72304Y82849D01*
X73356Y83712D01*
X74218Y84763D01*
X74860Y85963D01*
X75254Y87264D01*
X75388Y88618D01*
X75254Y89972D01*
X74860Y91274D01*
X74218Y92473D01*
X73356Y93525D01*
X72304Y94388D01*
X71104Y95029D01*
X69803Y95424D01*
X68449Y95557D01*
D02*
G37*
G36*
X73386Y73673D02*
X69933D01*
Y70221D01*
X73386D01*
Y73673D01*
D02*
G37*
G36*
X68933D02*
X65480D01*
Y70221D01*
X68933D01*
Y73673D01*
D02*
G37*
G36*
X77110Y62291D02*
X76823D01*
Y60181D01*
X78933D01*
Y60469D01*
X78794Y61166D01*
X78399Y61757D01*
X77808Y62152D01*
X77110Y62291D01*
D02*
G37*
G36*
X78933Y59181D02*
X76823D01*
Y57071D01*
X77110D01*
X77808Y57210D01*
X78399Y57605D01*
X78794Y58196D01*
X78933Y58894D01*
Y59181D01*
D02*
G37*
G36*
X75823D02*
X73713D01*
Y58894D01*
X73852Y58196D01*
X74247Y57605D01*
X74838Y57210D01*
X75536Y57071D01*
X75823D01*
Y59181D01*
D02*
G37*
G36*
X82728Y36018D02*
Y34394D01*
X84353D01*
X84283Y34745D01*
X83801Y35466D01*
X83079Y35948D01*
X82728Y36018D01*
D02*
G37*
G36*
X81729D02*
X81377Y35948D01*
X80656Y35466D01*
X80174Y34745D01*
X80104Y34394D01*
X81729D01*
Y36018D01*
D02*
G37*
G36*
X84353Y33394D02*
X82728D01*
Y31769D01*
X83079Y31839D01*
X83801Y32321D01*
X84283Y33043D01*
X84353Y33394D01*
D02*
G37*
G36*
X81729D02*
X80104D01*
X80174Y33043D01*
X80656Y32321D01*
X81377Y31839D01*
X81729Y31769D01*
Y33394D01*
D02*
G37*
G36*
X68449Y33746D02*
X67095Y33613D01*
X65794Y33218D01*
X64594Y32577D01*
X63542Y31714D01*
X62679Y30662D01*
X62038Y29463D01*
X61643Y28161D01*
X61510Y26807D01*
X61643Y25453D01*
X62038Y24152D01*
X62679Y22952D01*
X63542Y21901D01*
X64594Y21038D01*
X65794Y20396D01*
X67095Y20001D01*
X68449Y19868D01*
X69803Y20001D01*
X71104Y20396D01*
X72304Y21038D01*
X73356Y21901D01*
X74218Y22952D01*
X74860Y24152D01*
X75254Y25453D01*
X75388Y26807D01*
X75254Y28161D01*
X74860Y29463D01*
X74218Y30662D01*
X73356Y31714D01*
X72304Y32577D01*
X71104Y33218D01*
X69803Y33613D01*
X68449Y33746D01*
D02*
G37*
G36*
X48583Y92953D02*
X45720D01*
Y90091D01*
X48583D01*
Y92953D01*
D02*
G37*
G36*
X44721D02*
X41858D01*
Y90091D01*
X44721D01*
Y92953D01*
D02*
G37*
G36*
X27110Y95557D02*
X25757Y95424D01*
X24455Y95029D01*
X23255Y94388D01*
X22204Y93525D01*
X21341Y92473D01*
X20699Y91274D01*
X20305Y89972D01*
X20171Y88618D01*
X20305Y87264D01*
X20699Y85963D01*
X21341Y84763D01*
X22204Y83712D01*
X23255Y82849D01*
X24455Y82207D01*
X25757Y81813D01*
X27110Y81679D01*
X28464Y81813D01*
X29766Y82207D01*
X30965Y82849D01*
X32017Y83712D01*
X32880Y84763D01*
X33521Y85963D01*
X33916Y87264D01*
X34049Y88618D01*
X33916Y89972D01*
X33521Y91274D01*
X32880Y92473D01*
X32017Y93525D01*
X30965Y94388D01*
X29766Y95029D01*
X28464Y95424D01*
X27110Y95557D01*
D02*
G37*
G36*
X32047Y73673D02*
X28594D01*
Y70221D01*
X32047D01*
Y73673D01*
D02*
G37*
G36*
X27595D02*
X24142D01*
Y70221D01*
X27595D01*
Y73673D01*
D02*
G37*
G36*
X35772Y62291D02*
X35484D01*
Y60181D01*
X37594D01*
Y60469D01*
X37455Y61166D01*
X37060Y61757D01*
X36469Y62152D01*
X35772Y62291D01*
D02*
G37*
G36*
X37594Y59181D02*
X35484D01*
Y57071D01*
X35772D01*
X36469Y57210D01*
X37060Y57605D01*
X37455Y58196D01*
X37594Y58894D01*
Y59181D01*
D02*
G37*
G36*
X34484D02*
X32375D01*
Y58894D01*
X32513Y58196D01*
X32908Y57605D01*
X33500Y57210D01*
X34197Y57071D01*
X34484D01*
Y59181D01*
D02*
G37*
G36*
X41390Y36018D02*
Y34394D01*
X43014D01*
X42944Y34745D01*
X42462Y35466D01*
X41741Y35948D01*
X41390Y36018D01*
D02*
G37*
G36*
X40390D02*
X40039Y35948D01*
X39317Y35466D01*
X38835Y34745D01*
X38765Y34394D01*
X40390D01*
Y36018D01*
D02*
G37*
G36*
X43014Y33394D02*
X41390D01*
Y31769D01*
X41741Y31839D01*
X42462Y32321D01*
X42944Y33043D01*
X43014Y33394D01*
D02*
G37*
G36*
X40390D02*
X38765D01*
X38835Y33043D01*
X39317Y32321D01*
X40039Y31839D01*
X40390Y31769D01*
Y33394D01*
D02*
G37*
G36*
X27110Y33746D02*
X25757Y33613D01*
X24455Y33218D01*
X23255Y32577D01*
X22204Y31714D01*
X21341Y30662D01*
X20699Y29463D01*
X20305Y28161D01*
X20171Y26807D01*
X20305Y25453D01*
X20699Y24152D01*
X21341Y22952D01*
X22204Y21901D01*
X23255Y21038D01*
X24455Y20396D01*
X25757Y20001D01*
X27110Y19868D01*
X28464Y20001D01*
X29766Y20396D01*
X30965Y21038D01*
X32017Y21901D01*
X32880Y22952D01*
X33521Y24152D01*
X33916Y25453D01*
X34049Y26807D01*
X33916Y28161D01*
X33521Y29463D01*
X32880Y30662D01*
X32017Y31714D01*
X30965Y32577D01*
X29766Y33218D01*
X28464Y33613D01*
X27110Y33746D01*
D02*
G37*
G36*
X225272Y50886D02*
Y47465D01*
X228693D01*
X228623Y47997D01*
X228224Y48958D01*
X227591Y49784D01*
X226765Y50417D01*
X225803Y50816D01*
X225272Y50886D01*
D02*
G37*
G36*
X224272D02*
X223740Y50816D01*
X222778Y50417D01*
X221953Y49784D01*
X221319Y48958D01*
X220921Y47997D01*
X220851Y47465D01*
X224272D01*
Y50886D01*
D02*
G37*
G36*
X228693Y46465D02*
X225272D01*
Y43044D01*
X225803Y43114D01*
X226765Y43512D01*
X227591Y44145D01*
X228224Y44971D01*
X228623Y45933D01*
X228693Y46465D01*
D02*
G37*
G36*
X224272D02*
X220851D01*
X220921Y45933D01*
X221319Y44971D01*
X221953Y44145D01*
X222778Y43512D01*
X223740Y43114D01*
X224272Y43044D01*
Y46465D01*
D02*
G37*
G36*
X216520Y61154D02*
X211370D01*
Y56004D01*
X212323D01*
Y43502D01*
X211102Y42281D01*
X210338Y42129D01*
X209616Y41647D01*
X209134Y40926D01*
X208965Y40075D01*
X209134Y39224D01*
X209616Y38502D01*
X210338Y38020D01*
X211189Y37851D01*
X212040Y38020D01*
X212761Y38502D01*
X213244Y39224D01*
X213396Y39988D01*
X215092Y41684D01*
X215443Y42210D01*
X215567Y42831D01*
Y56004D01*
X216520D01*
Y61154D01*
D02*
G37*
G36*
X150469Y50886D02*
Y47465D01*
X153890D01*
X153820Y47997D01*
X153421Y48958D01*
X152788Y49784D01*
X151962Y50417D01*
X151000Y50816D01*
X150469Y50886D01*
D02*
G37*
G36*
X149469D02*
X148937Y50816D01*
X147975Y50417D01*
X147149Y49784D01*
X146516Y48958D01*
X146117Y47997D01*
X146047Y47465D01*
X149469D01*
Y50886D01*
D02*
G37*
G36*
X153890Y46465D02*
X150469D01*
Y43044D01*
X151000Y43114D01*
X151962Y43512D01*
X152788Y44145D01*
X153421Y44971D01*
X153820Y45933D01*
X153890Y46465D01*
D02*
G37*
G36*
X149469D02*
X146047D01*
X146117Y45933D01*
X146516Y44971D01*
X147149Y44145D01*
X147975Y43512D01*
X148937Y43114D01*
X149469Y43044D01*
Y46465D01*
D02*
G37*
G36*
X141717Y61154D02*
X136567D01*
Y56004D01*
X137520D01*
Y43502D01*
X136299Y42281D01*
X135535Y42129D01*
X134813Y41647D01*
X134331Y40926D01*
X134162Y40075D01*
X134331Y39224D01*
X134813Y38502D01*
X135535Y38020D01*
X136386Y37851D01*
X137237Y38020D01*
X137958Y38502D01*
X138440Y39224D01*
X138592Y39988D01*
X140288Y41684D01*
X140640Y42210D01*
X140763Y42831D01*
Y56004D01*
X141717D01*
Y61154D01*
D02*
G37*
%LPD*%
D11*
X34984Y53776D02*
D03*
X76323D02*
D03*
X34984Y144720D02*
D03*
X76323D02*
D03*
D12*
X34984Y59681D02*
D03*
X76323D02*
D03*
X34984Y150626D02*
D03*
X76323D02*
D03*
D14*
X34984Y50036D02*
X39709Y45311D01*
X34787Y50232D02*
Y53973D01*
X34984Y33894D02*
Y50036D01*
X34787Y50232D02*
X34984Y50036D01*
X28095Y53973D02*
X34787D01*
X28095D02*
X28390Y54268D01*
X37740Y24445D02*
Y24445D01*
X34984Y33894D02*
X36997Y31881D01*
Y25189D02*
X37740Y24445D01*
X36997Y25189D02*
Y31881D01*
X37740Y24445D02*
X40496Y21689D01*
X45110D02*
X45221Y21579D01*
X40496Y21689D02*
X45110D01*
X28095Y56335D02*
X28193Y56433D01*
X76323Y50036D02*
X81047Y45311D01*
X76126Y50232D02*
Y53973D01*
X76323Y33894D02*
Y50036D01*
X76126Y50232D02*
X76323Y50036D01*
X69433Y53973D02*
X76126D01*
X69433D02*
X69728Y54268D01*
X79079Y24445D02*
Y24445D01*
X76323Y33894D02*
X78335Y31881D01*
Y25189D02*
X79079Y24445D01*
X78335Y25189D02*
Y31881D01*
X79079Y24445D02*
X81835Y21689D01*
X86449D02*
X86559Y21579D01*
X81835Y21689D02*
X86449D01*
X69433Y56335D02*
X69532Y56433D01*
X34984Y140980D02*
X39709Y136256D01*
X34787Y141177D02*
Y144917D01*
X34984Y124839D02*
Y140980D01*
X34787Y141177D02*
X34984Y140980D01*
X28095Y144917D02*
X34787D01*
X28095D02*
X28390Y145213D01*
X37740Y115390D02*
Y115390D01*
X34984Y124839D02*
X36997Y122826D01*
Y116133D02*
X37740Y115390D01*
X36997Y116133D02*
Y122826D01*
X37740Y115390D02*
X40496Y112634D01*
X45110D02*
X45221Y112524D01*
X40496Y112634D02*
X45110D01*
X28095Y147280D02*
X28193Y147378D01*
X76323Y140980D02*
X81047Y136256D01*
X76126Y141177D02*
Y144917D01*
X76323Y124839D02*
Y140980D01*
X76126Y141177D02*
X76323Y140980D01*
X69433Y144917D02*
X76126D01*
X69433D02*
X69728Y145213D01*
X79079Y115390D02*
Y115390D01*
X76323Y124839D02*
X78335Y122826D01*
Y116133D02*
X79079Y115390D01*
X78335Y116133D02*
Y122826D01*
X79079Y115390D02*
X81835Y112634D01*
X86449D02*
X86559Y112524D01*
X81835Y112634D02*
X86449D01*
X69433Y147280D02*
X69532Y147378D01*
X132252Y46965D02*
X133236Y47949D01*
Y58579D01*
X123394Y30232D02*
X132252Y21374D01*
X123394Y30232D02*
Y56717D01*
X117095Y50417D02*
X123394Y56717D01*
X125256Y58579D01*
X133236D01*
X111189Y50417D02*
X117095D01*
X207055Y46965D02*
X208039Y47949D01*
Y58579D01*
X198197Y30232D02*
X207055Y21374D01*
X198197Y30232D02*
Y56717D01*
X191898Y50417D02*
X198197Y56717D01*
X200059Y58579D01*
X208039D01*
X185992Y50417D02*
X191898D01*
X132252Y113303D02*
X133236Y114287D01*
Y124917D01*
X123394Y96571D02*
X132252Y87713D01*
X123394Y96571D02*
Y123055D01*
X117095Y116756D02*
X123394Y123055D01*
X125256Y124917D01*
X133236D01*
X111189Y116756D02*
X117095D01*
X207055Y113303D02*
X208039Y114287D01*
Y124917D01*
X198197Y96571D02*
X207055Y87713D01*
X198197Y96571D02*
Y123055D01*
X191898Y116756D02*
X198197Y123055D01*
X200059Y124917D01*
X208039D01*
X185992Y116756D02*
X191898D01*
D15*
X195698Y187824D02*
X196063Y188189D01*
X195698Y184478D02*
Y187824D01*
X195473Y184252D02*
X195698Y184478D01*
X160039Y156299D02*
X176181D01*
X184055Y164173D01*
Y182087D01*
X190157Y188189D01*
X196063D02*
X202953D01*
X213504Y168881D02*
Y177638D01*
X202953Y188189D02*
X213504Y177638D01*
X139142Y42831D02*
Y58579D01*
X136386Y40075D02*
X139142Y42831D01*
X213945D02*
Y58579D01*
X211189Y40075D02*
X213945Y42831D01*
X139142Y109169D02*
Y124917D01*
X136386Y106413D02*
X139142Y109169D01*
X213945D02*
Y124917D01*
X211189Y106413D02*
X213945Y109169D01*
D16*
X196063Y188189D02*
D03*
X133236Y58579D02*
D03*
X208039D02*
D03*
X133236Y124917D02*
D03*
X208039D02*
D03*
D17*
X190157Y188189D02*
D03*
X139142Y58579D02*
D03*
X213945D02*
D03*
X139142Y124917D02*
D03*
X213945D02*
D03*
D18*
X93996Y119980D02*
D03*
Y118799D02*
D03*
Y117618D02*
D03*
Y116437D02*
D03*
Y115256D02*
D03*
Y114075D02*
D03*
Y112894D02*
D03*
X15453Y71260D02*
D03*
Y70079D02*
D03*
Y68898D02*
D03*
Y67716D02*
D03*
Y66535D02*
D03*
Y65354D02*
D03*
Y64173D02*
D03*
Y142323D02*
D03*
Y141142D02*
D03*
Y139961D02*
D03*
Y138779D02*
D03*
Y137598D02*
D03*
Y136417D02*
D03*
Y135236D02*
D03*
X52165Y135138D02*
D03*
Y136319D02*
D03*
Y137500D02*
D03*
Y138681D02*
D03*
Y139862D02*
D03*
Y141043D02*
D03*
Y142224D02*
D03*
Y71161D02*
D03*
Y69980D02*
D03*
Y68799D02*
D03*
Y67618D02*
D03*
Y66437D02*
D03*
Y65256D02*
D03*
Y64075D02*
D03*
X55709Y71161D02*
D03*
Y69980D02*
D03*
Y68799D02*
D03*
Y67618D02*
D03*
Y66437D02*
D03*
Y65256D02*
D03*
Y64075D02*
D03*
Y142224D02*
D03*
Y141043D02*
D03*
Y139862D02*
D03*
Y138681D02*
D03*
Y137500D02*
D03*
Y136319D02*
D03*
Y135138D02*
D03*
X132480Y207972D02*
D03*
X131299D02*
D03*
X130118D02*
D03*
X128937D02*
D03*
X127756D02*
D03*
X126575D02*
D03*
X125394D02*
D03*
X203543D02*
D03*
X202362D02*
D03*
X201181D02*
D03*
X200000D02*
D03*
X198819D02*
D03*
X197638D02*
D03*
X196457D02*
D03*
X242126Y44980D02*
D03*
Y46161D02*
D03*
Y47343D02*
D03*
Y48524D02*
D03*
Y49705D02*
D03*
Y50886D02*
D03*
Y52067D02*
D03*
X242323Y113878D02*
D03*
Y112697D02*
D03*
Y111516D02*
D03*
Y110335D02*
D03*
Y109153D02*
D03*
Y107972D02*
D03*
Y106791D02*
D03*
X196752Y143209D02*
D03*
X197933D02*
D03*
X199114D02*
D03*
X200295D02*
D03*
X201476D02*
D03*
X202658D02*
D03*
X203839D02*
D03*
X125689D02*
D03*
X126870D02*
D03*
X128051D02*
D03*
X129232D02*
D03*
X130413D02*
D03*
X131595D02*
D03*
X132776D02*
D03*
X194291Y77854D02*
D03*
X195472D02*
D03*
X196653D02*
D03*
X197835D02*
D03*
X199016D02*
D03*
X200197D02*
D03*
X201378D02*
D03*
X123228D02*
D03*
X124409D02*
D03*
X125591D02*
D03*
X126772D02*
D03*
X127953D02*
D03*
X129134D02*
D03*
X130315D02*
D03*
X125689Y146752D02*
D03*
X126870D02*
D03*
X128051D02*
D03*
X129232D02*
D03*
X130413D02*
D03*
X131595D02*
D03*
X132776D02*
D03*
X203839D02*
D03*
X202658D02*
D03*
X201476D02*
D03*
X200295D02*
D03*
X199114D02*
D03*
X197933D02*
D03*
X196752D02*
D03*
X123228Y81201D02*
D03*
X124409D02*
D03*
X125591D02*
D03*
X126772D02*
D03*
X127953D02*
D03*
X129134D02*
D03*
X130315D02*
D03*
X201378D02*
D03*
X200197D02*
D03*
X199016D02*
D03*
X197835D02*
D03*
X196654D02*
D03*
X195473D02*
D03*
X194291D02*
D03*
X196752Y15256D02*
D03*
X197933D02*
D03*
X199114D02*
D03*
X200295D02*
D03*
X201476D02*
D03*
X202658D02*
D03*
X203839D02*
D03*
X172047Y113779D02*
D03*
Y112598D02*
D03*
Y111417D02*
D03*
Y110236D02*
D03*
Y109055D02*
D03*
Y107874D02*
D03*
Y106693D02*
D03*
X168504D02*
D03*
Y107874D02*
D03*
Y109055D02*
D03*
Y110236D02*
D03*
Y111417D02*
D03*
Y112598D02*
D03*
Y113779D02*
D03*
X93602Y50886D02*
D03*
Y49705D02*
D03*
Y48524D02*
D03*
Y47343D02*
D03*
Y46161D02*
D03*
Y44980D02*
D03*
Y43799D02*
D03*
X168307Y51968D02*
D03*
Y50787D02*
D03*
Y49606D02*
D03*
Y48425D02*
D03*
Y47244D02*
D03*
Y46063D02*
D03*
Y44882D02*
D03*
X171850D02*
D03*
Y46063D02*
D03*
Y47244D02*
D03*
Y48425D02*
D03*
Y49606D02*
D03*
Y50787D02*
D03*
Y51968D02*
D03*
X97441Y112845D02*
D03*
Y114026D02*
D03*
Y115207D02*
D03*
Y116388D02*
D03*
Y117569D02*
D03*
Y118750D02*
D03*
Y119931D02*
D03*
X97342Y50886D02*
D03*
Y49705D02*
D03*
Y48524D02*
D03*
Y47343D02*
D03*
Y46161D02*
D03*
Y44980D02*
D03*
Y43799D02*
D03*
X132776Y15256D02*
D03*
X131595D02*
D03*
X130413D02*
D03*
X129232D02*
D03*
X128051D02*
D03*
X126870D02*
D03*
X125689D02*
D03*
D19*
X45221Y21579D02*
D03*
X86559D02*
D03*
X45221Y112524D02*
D03*
X86559D02*
D03*
D20*
X45221Y93453D02*
D03*
X86559D02*
D03*
X45221Y184398D02*
D03*
X86559D02*
D03*
D21*
X28095Y46098D02*
D03*
Y61847D02*
D03*
Y53973D02*
D03*
X69433Y46098D02*
D03*
Y61847D02*
D03*
Y53973D02*
D03*
X28095Y137043D02*
D03*
Y152791D02*
D03*
Y144917D02*
D03*
X69433Y137043D02*
D03*
Y152791D02*
D03*
Y144917D02*
D03*
X111189Y42543D02*
D03*
Y58291D02*
D03*
Y50417D02*
D03*
X132252Y21374D02*
D03*
X149969D02*
D03*
Y46965D02*
D03*
X185992Y42543D02*
D03*
Y58291D02*
D03*
Y50417D02*
D03*
X207055Y21374D02*
D03*
X224772D02*
D03*
Y46965D02*
D03*
X111189Y108882D02*
D03*
Y124630D02*
D03*
Y116756D02*
D03*
X132252Y87713D02*
D03*
X149969D02*
D03*
Y113303D02*
D03*
X185992Y108882D02*
D03*
Y124630D02*
D03*
Y116756D02*
D03*
X207055Y87713D02*
D03*
X224772D02*
D03*
Y113303D02*
D03*
D22*
X28095Y69721D02*
D03*
X69433D02*
D03*
X28095Y160665D02*
D03*
X69433D02*
D03*
X111189Y66165D02*
D03*
X132252Y46965D02*
D03*
X185992Y66165D02*
D03*
X207055Y46965D02*
D03*
X111189Y132504D02*
D03*
X132252Y113303D02*
D03*
X185992Y132504D02*
D03*
X207055Y113303D02*
D03*
D23*
X27110Y88618D02*
D03*
Y26807D02*
D03*
X68449Y88618D02*
D03*
Y26807D02*
D03*
X27110Y179563D02*
D03*
Y117752D02*
D03*
X68449Y179563D02*
D03*
Y117752D02*
D03*
X215476Y197961D02*
D03*
X143110Y158268D02*
D03*
X157252Y60154D02*
D03*
X111976Y23933D02*
D03*
X232055Y60154D02*
D03*
X186779Y23933D02*
D03*
X157252Y126492D02*
D03*
X111976Y90272D02*
D03*
X232055Y126492D02*
D03*
X186779Y90272D02*
D03*
D24*
X39709Y45311D02*
D03*
X40890Y33894D02*
D03*
X81047Y45311D02*
D03*
X82228Y33894D02*
D03*
X39709Y136256D02*
D03*
X40890Y124839D02*
D03*
X81047Y136256D02*
D03*
X82228Y124839D02*
D03*
X195473Y184252D02*
D03*
X160039Y156299D02*
D03*
X136386Y40075D02*
D03*
X211189D02*
D03*
X136386Y106413D02*
D03*
X211189D02*
D03*
D25*
X125394Y189815D02*
D03*
D26*
Y181913D02*
D03*
Y174016D02*
D03*
Y166114D02*
D03*
D27*
X173504Y168881D02*
D03*
D28*
X193504D02*
D03*
X213504D02*
D03*
M02*
